<?xml version="1.0" encoding="utf-8"?>
<!-- Generator: Adobe Illustrator 24.0.1, SVG Export Plug-In . SVG Version: 6.00 Build 0)  -->
<svg version="1.1" id="图层_1" xmlns="http://www.w3.org/2000/svg" xmlns:xlink="http://www.w3.org/1999/xlink" x="0px" y="0px"
	 viewBox="0 0 209 51" style="enable-background:new 0 0 209 51;" xml:space="preserve">
<style type="text/css">
	.st0{fill:#FFFFFF;}
	.st1{fill:#E44589;}
</style>
<g>
	<path class="st0" d="M41.9,48.4c1.6,1.2,3.4,2,5.4,2.3v0c-2.3-0.8-4-3-4-5.6v-19c0-3.6-2.9-6.5-6.5-6.5V45c0,2.6-1.7,4.8-4,5.6v0
		c2-0.3,3.9-1.1,5.4-2.3C39.3,47.6,40.8,47.6,41.9,48.4z"/>
	<path class="st0" d="M28.9,50.6L28.9,50.6c-2.3-0.8-4-3.1-4-5.7V6.5C24.9,2.9,22,0,18.4,0v43.7c0,3.3-2.6,6-5.9,6c-3.3,0-6-2.7-6-6
		v-5.5c0-3.6-2.9-6.5-6.5-6.5v6.5c0,6.9,5.6,12.5,12.5,12.5c2.8,0,5.3-0.9,7.4-2.4c1.1-0.8,2.6-0.8,3.7,0
		C25,49.5,26.9,50.3,28.9,50.6z"/>
	<path class="st0" d="M67.7,0c-6.9,0-12.5,5.6-12.5,12.5V45c0,2.6-1.7,4.8-4,5.6v0c2-0.3,3.9-1.1,5.4-2.3c1.1-0.8,2.6-0.8,3.7,0
		c2.1,1.5,4.6,2.4,7.4,2.4c6.9,0,12.5-5.6,12.5-12.5c0-3.6-2.9-6.5-6.5-6.5v12.1c0,3.3-2.7,6-6,6c-3.3,0-5.9-2.8-5.9-6V7.1
		c0-3.3,2.6-6,5.9-6c3.3,0,6,2.7,6,6v3.9c0,3.6,2.9,6.5,6.5,6.5v-4.9C80.1,5.6,74.5,0,67.7,0z"/>
	<path class="st1" d="M67.7,19.4c-0.4,0-0.9,0-1.3,0.1c0.2,3.7,3.3,6.5,6.8,6.5c3.4,0,6.3,2.4,6.8,6h0.1c0-2.8-0.9-5.5-2.5-7.6
		C75.3,21.3,71.7,19.4,67.7,19.4z"/>
	<path class="st0" d="M93.1,22.2h1v1.3c0,0.5,0.2,0.9,0.6,1.1c0.4,0.2,1,0.4,1.9,0.4c0.9,0,1.4-0.1,1.7-0.4c0.3-0.3,0.5-0.8,0.5-1.7
		v-5.3h1v5.5c0,1-0.3,1.7-0.8,2.2c-0.5,0.4-1.4,0.6-2.6,0.6c-1.1,0-1.9-0.2-2.5-0.6c-0.5-0.4-0.8-1-0.8-1.8L93.1,22.2L93.1,22.2z"/>
	<path class="st0" d="M103,17.6v5.3c0,0.8,0.2,1.4,0.5,1.7c0.3,0.3,0.9,0.4,1.9,0.4c0.9,0,1.5-0.1,1.9-0.4c0.3-0.3,0.5-0.8,0.5-1.7
		v-5.3h1v5.5c0,1-0.3,1.7-0.8,2.2c-0.5,0.4-1.4,0.6-2.6,0.6c-1.2,0-2-0.2-2.6-0.6c-0.5-0.4-0.8-1.1-0.8-2.2v-5.5H103z"/>
	<path class="st0" d="M110.1,24.5l0.6-0.9c0.6,0.4,1.2,0.8,1.8,1c0.6,0.2,1.2,0.4,1.8,0.4c0.8,0,1.4-0.2,1.8-0.5s0.7-0.7,0.7-1.2
		c0-0.4-0.2-0.7-0.5-1c-0.3-0.3-0.8-0.4-1.4-0.5c-0.1,0-0.3,0-0.6,0c-1.3-0.1-2.2-0.2-2.7-0.5c-0.4-0.2-0.7-0.4-0.9-0.7
		c-0.2-0.3-0.3-0.6-0.3-1c0-0.6,0.3-1.2,0.9-1.6c0.6-0.4,1.3-0.6,2.3-0.6c0.7,0,1.3,0.1,2,0.3c0.7,0.2,1.3,0.5,1.9,1l-0.6,0.8
		c-0.5-0.4-1-0.7-1.6-0.9c-0.6-0.2-1.1-0.3-1.7-0.3c-0.6,0-1.1,0.1-1.5,0.4s-0.6,0.5-0.6,0.9c0,0.1,0,0.3,0.1,0.4
		c0.1,0.1,0.2,0.2,0.3,0.3c0.3,0.2,1.1,0.4,2.2,0.5c0.5,0,0.9,0.1,1.2,0.1c0.8,0.1,1.5,0.4,2,0.8c0.5,0.4,0.7,1,0.7,1.6
		c0,0.8-0.3,1.4-1,1.9c-0.7,0.5-1.5,0.7-2.6,0.7c-0.8,0-1.6-0.1-2.3-0.4C111.4,25.3,110.8,24.9,110.1,24.5z"/>
	<path class="st0" d="M122.6,25.7v-7.2h-3.4v-0.9h7.9v0.9h-3.4v7.2H122.6z"/>
	<path class="st0" d="M95.4,38.2L92.8,30h1l2,6.3l2.1-6.3h0.9l2.1,6.2l2-6.2h1l-2.6,8.1h-0.7l-2.1-6.5l-2.1,6.5H95.4z"/>
	<path class="st0" d="M108.5,38.4c-1.2,0-2.2-0.4-3-1.2c-0.8-0.8-1.2-1.8-1.2-3c0-1.2,0.4-2.3,1.2-3c0.8-0.8,1.8-1.2,3-1.2
		c1.2,0,2.2,0.4,3,1.2c0.8,0.8,1.2,1.8,1.2,3c0,1.2-0.4,2.2-1.2,3C110.7,38,109.7,38.4,108.5,38.4z M108.5,37.4
		c0.9,0,1.7-0.3,2.3-0.9c0.6-0.6,0.9-1.4,0.9-2.4c0-1-0.3-1.8-0.9-2.4c-0.6-0.6-1.4-0.9-2.3-0.9s-1.7,0.3-2.3,0.9
		c-0.6,0.6-0.9,1.4-0.9,2.4c0,0.9,0.3,1.7,0.9,2.4C106.8,37.1,107.6,37.4,108.5,37.4z"/>
	<path class="st0" d="M114.5,38.2V30h0.5l5.3,6.1V30h1v8.1h-0.5l-5.3-6.1v6.1H114.5z"/>
	<path class="st0" d="M127.2,30.1c1.3,0,2.3,0.4,3.1,1.1c0.8,0.7,1.2,1.7,1.2,2.9c0,1.2-0.4,2.2-1.2,2.9c-0.8,0.7-1.8,1.1-3.1,1.1
		h-3.5v-8.1H127.2z M127.2,31h-2.5v6.2h2.5c1,0,1.8-0.3,2.4-0.8c0.6-0.6,0.9-1.3,0.9-2.3c0-0.9-0.3-1.7-0.9-2.3
		C129,31.3,128.2,31,127.2,31z"/>
	<path class="st0" d="M133.3,38.2V30h6.4V31h-5.4v2.4h3.3v0.9h-3.3v2.9h5.7v0.9H133.3z"/>
	<path class="st0" d="M141.5,38.2V30h4.7c0.8,0,1.4,0.2,1.9,0.6c0.5,0.4,0.7,0.9,0.7,1.6c0,0.6-0.2,1.1-0.5,1.5
		c-0.4,0.4-0.8,0.7-1.4,0.8l2,3.6h-1.1l-2-3.5h-3.2v3.5L141.5,38.2L141.5,38.2z M142.5,33.7h3.6c0.5,0,0.9-0.1,1.2-0.3
		c0.3-0.2,0.4-0.6,0.4-1c0-0.4-0.1-0.8-0.4-1c-0.3-0.2-0.6-0.4-1.1-0.4h-3.6L142.5,33.7L142.5,33.7z"/>
	<path class="st0" d="M150.5,38.2V30h6.4V31h-5.4v2.4h3.3v0.9h-3.3v3.9H150.5z"/>
	<path class="st0" d="M158.8,30.1v5.3c0,0.8,0.2,1.4,0.5,1.7c0.3,0.3,0.9,0.4,1.9,0.4s1.5-0.1,1.9-0.4c0.3-0.3,0.5-0.8,0.5-1.7v-5.3
		h1v5.5c0,1-0.3,1.7-0.8,2.2c-0.5,0.4-1.4,0.6-2.6,0.6c-1.2,0-2-0.2-2.6-0.6c-0.5-0.4-0.8-1.1-0.8-2.2v-5.5H158.8z"/>
	<path class="st0" d="M165.9,38.2V30h1v7.2h5.3v0.9H165.9z"/>
	<path class="st0" d="M181.6,36v-1.2h-2.2v-0.9h3.2v2.4c-0.4,0.7-0.9,1.2-1.5,1.5c-0.6,0.4-1.3,0.5-2.1,0.5c-1.2,0-2.2-0.4-3-1.2
		c-0.8-0.8-1.2-1.8-1.2-3c0-1.2,0.4-2.3,1.2-3c0.8-0.8,1.8-1.2,3-1.2c0.8,0,1.4,0.2,2.1,0.5c0.6,0.3,1.1,0.8,1.5,1.4l-0.8,0.6
		c-0.3-0.5-0.6-0.9-1.1-1.1c-0.5-0.3-1-0.4-1.6-0.4c-0.9,0-1.7,0.3-2.3,0.9c-0.6,0.6-0.9,1.4-0.9,2.4c0,0.9,0.3,1.7,0.9,2.4
		c0.6,0.6,1.4,0.9,2.3,0.9c0.6,0,1.1-0.1,1.5-0.4C180.9,36.8,181.3,36.4,181.6,36z"/>
	<path class="st0" d="M184.7,38.2V30h1v8.1H184.7z"/>
	<path class="st0" d="M187.2,38.2V30h5.5V31h-4.5v2.4h3.3v0.9h-3.3v3.9H187.2z"/>
	<path class="st0" d="M197.1,38.2V31h-3.4V30h7.9V31h-3.4v7.2H197.1z"/>
	<path class="st0" d="M201.2,36.9l0.6-0.9c0.6,0.4,1.2,0.8,1.8,1c0.6,0.2,1.2,0.4,1.8,0.4c0.8,0,1.4-0.2,1.8-0.5
		c0.5-0.3,0.7-0.7,0.7-1.2c0-0.4-0.2-0.7-0.5-1c-0.3-0.3-0.8-0.4-1.4-0.5c-0.1,0-0.3,0-0.6,0c-1.3-0.1-2.2-0.2-2.7-0.5
		c-0.4-0.2-0.7-0.4-0.9-0.7c-0.2-0.3-0.3-0.6-0.3-1c0-0.6,0.3-1.2,0.9-1.6c0.6-0.4,1.3-0.6,2.3-0.6c0.7,0,1.3,0.1,2,0.3
		c0.7,0.2,1.3,0.5,1.9,1l-0.6,0.8c-0.5-0.4-1-0.7-1.6-0.9c-0.6-0.2-1.1-0.3-1.7-0.3c-0.6,0-1.1,0.1-1.5,0.4
		c-0.4,0.2-0.6,0.5-0.6,0.9c0,0.1,0,0.3,0.1,0.4c0.1,0.1,0.2,0.2,0.3,0.3c0.3,0.2,1.1,0.4,2.2,0.5c0.5,0,0.9,0.1,1.2,0.1
		c0.8,0.1,1.5,0.4,2,0.8c0.5,0.4,0.7,1,0.7,1.6c0,0.8-0.3,1.4-1,1.9c-0.7,0.5-1.5,0.7-2.6,0.7c-0.8,0-1.6-0.1-2.3-0.4
		C202.5,37.8,201.8,37.4,201.2,36.9z"/>
	<path class="st0" d="M94.1,50.8v-8.1h6.4v0.9h-5.4V46h3.3v0.9h-3.3v3.9H94.1z"/>
	<path class="st0" d="M105.1,51c-1.2,0-2.2-0.4-3-1.2c-0.8-0.8-1.2-1.8-1.2-3c0-1.2,0.4-2.3,1.2-3c0.8-0.8,1.8-1.2,3-1.2
		c1.2,0,2.2,0.4,3,1.2c0.8,0.8,1.2,1.8,1.2,3c0,1.2-0.4,2.2-1.2,3C107.3,50.6,106.3,51,105.1,51z M105.1,50c0.9,0,1.7-0.3,2.3-0.9
		c0.6-0.6,0.9-1.4,0.9-2.4c0-1-0.3-1.8-0.9-2.4c-0.6-0.6-1.4-0.9-2.3-0.9s-1.7,0.3-2.3,0.9c-0.6,0.6-0.9,1.4-0.9,2.4
		c0,0.9,0.3,1.7,0.9,2.4C103.4,49.7,104.2,50,105.1,50z"/>
	<path class="st0" d="M111.1,50.8v-8.1h4.7c0.8,0,1.4,0.2,1.9,0.6c0.5,0.4,0.7,0.9,0.7,1.6c0,0.6-0.2,1.1-0.5,1.5
		c-0.4,0.4-0.8,0.7-1.4,0.8l2,3.6h-1.1l-2-3.5h-3.2v3.5L111.1,50.8L111.1,50.8z M112.1,46.3h3.6c0.5,0,0.9-0.1,1.2-0.3
		c0.3-0.2,0.4-0.6,0.4-1c0-0.4-0.1-0.8-0.4-1c-0.3-0.2-0.6-0.4-1.1-0.4H112L112.1,46.3L112.1,46.3z"/>
	<path class="st0" d="M126.8,50.8v-4.1l-3.7-4h1.3l2.9,3.2l2.9-3.2h1.3l-3.7,4.1v4H126.8z"/>
	<path class="st0" d="M135.5,51c-1.2,0-2.2-0.4-3-1.2c-0.8-0.8-1.2-1.8-1.2-3c0-1.2,0.4-2.3,1.2-3c0.8-0.8,1.8-1.2,3-1.2
		c1.2,0,2.2,0.4,3,1.2c0.8,0.8,1.2,1.8,1.2,3c0,1.2-0.4,2.2-1.2,3C137.8,50.6,136.8,51,135.5,51z M135.5,50c0.9,0,1.7-0.3,2.3-0.9
		c0.6-0.6,0.9-1.4,0.9-2.4c0-1-0.3-1.8-0.9-2.4c-0.6-0.6-1.4-0.9-2.3-0.9c-0.9,0-1.7,0.3-2.3,0.9c-0.6,0.6-0.9,1.4-0.9,2.4
		c0,0.9,0.3,1.7,0.9,2.4C133.9,49.7,134.6,50,135.5,50z"/>
	<path class="st0" d="M142.3,42.7v5.3c0,0.8,0.2,1.4,0.5,1.7c0.3,0.3,0.9,0.4,1.9,0.4s1.5-0.1,1.9-0.4c0.3-0.3,0.5-0.8,0.5-1.7v-5.3
		h1v5.5c0,1-0.3,1.7-0.8,2.2c-0.5,0.4-1.4,0.6-2.6,0.6c-1.2,0-2-0.2-2.6-0.6c-0.5-0.4-0.8-1.1-0.8-2.2v-5.5H142.3z"/>
	<path class="st0" d="M154.3,49.7c0.2,0,0.3,0.1,0.4,0.2c0.1,0.1,0.2,0.3,0.2,0.5c0,0.2-0.1,0.3-0.2,0.5c-0.1,0.1-0.3,0.2-0.4,0.2
		c-0.2,0-0.3-0.1-0.4-0.2c-0.1-0.1-0.2-0.3-0.2-0.5c0-0.2,0.1-0.4,0.2-0.5C154,49.7,154.2,49.7,154.3,49.7z M154.8,48.7h-0.9l-0.1-6
		h1.1L154.8,48.7z"/>
</g>
</svg>
