<svg width="84" height="78" viewBox="0 0 84 78" fill="none" xmlns="http://www.w3.org/2000/svg">
<g clip-path="url(#clip0_1752_22654)">
<path d="M69.0361 74.5078C69.7265 74.5078 70.2861 75.0675 70.2861 75.7578C70.2861 76.4482 69.7265 77.0078 69.0361 77.0078H53.7324C53.0421 77.0078 52.4824 76.4482 52.4824 75.7578C52.4824 75.0675 53.0421 74.5078 53.7324 74.5078H69.0361Z" fill="#EEEEEE"/>
<path d="M69.0762 24.793C70.7663 23.1055 73.5149 23.1057 75.2051 24.793L81.915 31.4932C83.606 33.1819 83.6059 35.9294 81.915 37.6182L43.4795 75.998C42.7566 76.7198 41.8043 77.1617 40.7881 77.25H40.7871L33.4424 77.8848H33.4414C30.7658 78.1126 28.521 75.8755 28.75 73.1982V73.1973L29.3857 65.8633V65.8623C29.4742 64.8461 29.9177 63.8948 30.6406 63.1729L69.0762 24.793ZM58.2207 0.324219C62.6894 0.324219 66.3428 3.96993 66.3428 8.43652V18.041C66.3425 18.7312 65.783 19.291 65.0928 19.291C64.4027 19.2908 63.843 18.731 63.8428 18.041V8.43652C63.8428 5.35408 61.3121 2.82422 58.2207 2.82422H8.61816C5.52688 2.82435 2.99609 5.35416 2.99609 8.43652V68.8975C2.99635 71.9796 5.52703 74.5087 8.61816 74.5088H21.5127L21.6406 74.5156C22.2706 74.5798 22.7624 75.1119 22.7627 75.7588C22.7627 76.4059 22.2708 76.9388 21.6406 77.0029L21.5127 77.0088H8.61816C4.14976 77.0087 0.49635 73.3638 0.496094 68.8975V8.43652C0.496094 3.97001 4.1496 0.324348 8.61816 0.324219H58.2207ZM32.4072 64.9414C32.1014 65.2469 31.9135 65.6487 31.876 66.0791L31.2412 73.4131C31.1459 74.5403 32.0931 75.4893 33.2275 75.3936L40.5713 74.7598L40.7324 74.7383C41.1033 74.6731 41.4452 74.4957 41.7129 74.2285L74.0693 41.9189L64.7637 32.6318L32.4072 64.9414ZM25.3828 51.2256C26.0133 51.2894 26.5059 51.8214 26.5059 52.4688C26.5059 53.1161 26.0133 53.6481 25.3828 53.7119L25.2559 53.7188H15.8525C15.1622 53.7188 14.6025 53.1591 14.6025 52.4688C14.6025 51.7784 15.1622 51.2188 15.8525 51.2188H25.2559L25.3828 51.2256ZM42.2129 39.0352C42.9032 39.0352 43.4629 39.5948 43.4629 40.2852C43.4629 40.9755 42.9032 41.5352 42.2129 41.5352H15.8525C15.1622 41.5352 14.6025 40.9755 14.6025 40.2852C14.6025 39.5948 15.1622 39.0352 15.8525 39.0352H42.2129ZM73.4385 26.5625C72.7242 25.8496 71.5569 25.8494 70.8428 26.5625L66.5332 30.8652L75.8379 40.1523L80.1484 35.8496C80.8617 35.1374 80.8617 33.9739 80.1484 33.2617L73.4385 26.5625Z" fill="#EEEEEE"/>
<path d="M25.7442 26.6236C26.1169 26.8962 26.5527 27.0849 27.0252 27.1583V27.1531C26.4792 26.9644 26.0854 26.4401 26.0854 25.832V21.3602C26.0854 20.511 25.3977 19.8242 24.5472 19.8242V25.832C24.5472 26.4454 24.1534 26.9644 23.6074 27.1531V27.1583C24.0799 27.0849 24.5157 26.8962 24.8884 26.6236C25.1352 26.4401 25.4869 26.4401 25.7442 26.6236Z" fill="#434343"/>
<path d="M22.6782 27.1567V27.1515C22.1322 26.9627 21.7384 26.4385 21.7384 25.8304V16.7977C21.7384 15.9485 21.0507 15.2617 20.2002 15.2617V25.5316C20.2002 26.3022 19.5807 26.9418 18.8089 26.9522C18.0267 26.9575 17.3967 26.3284 17.3967 25.5525V24.2629C17.3967 23.4136 16.7089 22.7269 15.8584 22.7269V24.2629C15.8584 25.8828 17.1762 27.1986 18.7984 27.1986C19.4494 27.1986 20.0532 26.9889 20.5362 26.6325C20.7934 26.4437 21.1399 26.4437 21.3972 26.6325C21.7699 26.8946 22.2057 27.0833 22.6782 27.1567Z" fill="#434343"/>
<path d="M31.829 15.2617C30.2067 15.2617 28.889 16.5776 28.889 18.1975V25.8251C28.889 26.4385 28.4952 26.9575 27.9492 27.1462V27.1515C28.4217 27.0781 28.8575 26.8893 29.2302 26.6167C29.4875 26.428 29.834 26.428 30.0912 26.6167C30.5795 26.9732 31.178 27.1829 31.829 27.1829C33.4513 27.1829 34.769 25.8671 34.769 24.2472C34.769 23.3979 34.0813 22.7112 33.2308 22.7112V25.542C33.2308 26.3179 32.5955 26.947 31.8185 26.9418C31.0467 26.9365 30.4272 26.2969 30.4272 25.5211V16.9236C30.4272 16.1529 31.0467 15.5134 31.8185 15.5029C32.6008 15.4976 33.2308 16.1267 33.2308 16.9026V17.8095C33.2308 18.6588 33.9185 19.3455 34.769 19.3455V18.1922C34.7743 16.5776 33.4565 15.2617 31.829 15.2617Z" fill="#434343"/>
<path d="M31.8289 19.8242C31.7239 19.8242 31.6242 19.8295 31.5244 19.8399C31.5717 20.6997 32.2962 21.3602 33.1414 21.3602C33.9499 21.3602 34.6377 21.9317 34.7584 22.7652H34.7742C34.7742 22.0994 34.5537 21.4861 34.1757 20.9933C33.6349 20.2803 32.7844 19.8242 31.8289 19.8242Z" fill="#E44589"/>
</g>
<defs>
<clipPath id="clip0_1752_22654">
<rect width="84" height="78" fill="white"/>
</clipPath>
</defs>
</svg>
