<svg width="64" height="64" viewBox="0 0 64 64" fill="none" xmlns="http://www.w3.org/2000/svg">
<g clip-path="url(#clip0_1541_19656)">
<path d="M50.63 46.34H47.16C50.71 42.58 52.72 37.58 52.72 32.36C52.72 21.13 43.58 12 32.36 12C21.14 12 12 21.13 12 32.36C12 43.59 21.13 52.72 32.36 52.72C35.13 52.72 37.82 52.17 40.35 51.09C40.73 50.93 40.91 50.49 40.75 50.11C40.59 49.73 40.15 49.55 39.77 49.71C37.43 50.71 34.94 51.22 32.37 51.22C21.97 51.22 13.51 42.76 13.51 32.36C13.51 21.96 21.96 13.5 32.36 13.5C42.76 13.5 51.22 21.96 51.22 32.36C51.22 37.78 48.88 42.94 44.81 46.53C44.58 46.74 44.49 47.07 44.6 47.36C44.71 47.65 44.99 47.85 45.3 47.85H50.63C51.04 47.85 51.38 47.51 51.38 47.1C51.38 46.67 51.05 46.34 50.63 46.34Z" fill="#1D1D1D"/>
<path d="M39.01 31.2893C39.42 31.2893 39.76 30.9493 39.76 30.5393C39.76 30.1293 39.42 29.7893 39.01 29.7893H33.6L38.58 24.2193C38.86 23.9093 38.83 23.4393 38.52 23.1593C38.21 22.8793 37.74 22.9093 37.46 23.2193L32.36 28.9193L27.26 23.2193C26.98 22.9093 26.51 22.8793 26.2 23.1593C25.89 23.4393 25.87 23.9093 26.14 24.2193L31.12 29.7893H25.7C25.29 29.7893 24.95 30.1293 24.95 30.5393C24.95 30.9493 25.29 31.2893 25.7 31.2893H31.6V34.7793H25.76C25.35 34.7793 25.01 35.1193 25.01 35.5293C25.01 35.9393 25.35 36.2793 25.76 36.2793H31.6V42.0793C31.6 42.4893 31.94 42.8293 32.35 42.8293C32.76 42.8293 33.1 42.4893 33.1 42.0793V36.2793H38.94C39.35 36.2793 39.69 35.9393 39.69 35.5293C39.69 35.1193 39.35 34.7793 38.94 34.7793H33.1V31.2893H39.01Z" fill="#1D1D1D"/>
</g>
<defs>
<clipPath id="clip0_1541_19656">
<rect width="40.72" height="40.72" fill="white" transform="translate(12 12)"/>
</clipPath>
</defs>
</svg>
