<?xml version="1.0" encoding="utf-8"?>
<!-- Generator: Adobe Illustrator 24.0.1, SVG Export Plug-In . SVG Version: 6.00 Build 0)  -->
<svg version="1.1" id="图层_1" xmlns="http://www.w3.org/2000/svg" xmlns:xlink="http://www.w3.org/1999/xlink" x="0px" y="0px"
	 viewBox="0 0 118 106" style="enable-background:new 0 0 118 106;" xml:space="preserve">
<style type="text/css">
	.st0{fill:none;}
	.st1{fill:#FAFAFA;}
	.st2{fill:#434343;}
	.st3{fill:#E44589;}
	.st4{fill:#EEEEEE;}
</style>
<rect class="st0" width="118" height="106"/>
<path class="st1" d="M59,106c32.6,0,59-7.7,59-17.1c0-9.4-26.4-17.1-59-17.1S0,79.5,0,88.9C0,98.3,26.4,106,59,106z"/>
<path class="st2" d="M59.4,72.4c0.4,0.3,0.8,0.5,1.3,0.5v0c-0.5-0.2-0.9-0.7-0.9-1.3v-4.4c0-0.8-0.7-1.5-1.5-1.5v5.9
	c0,0.6-0.4,1.1-0.9,1.3v0c0.5-0.1,0.9-0.3,1.3-0.5C58.8,72.2,59.2,72.2,59.4,72.4z"/>
<path class="st2" d="M56.4,72.9L56.4,72.9c-0.5-0.2-0.9-0.7-0.9-1.3v-8.9c0-0.8-0.7-1.5-1.5-1.5v10.2c0,0.8-0.6,1.4-1.4,1.4
	c-0.8,0-1.4-0.6-1.4-1.4v-1.3c0-0.8-0.7-1.5-1.5-1.5v1.5c0,1.6,1.3,2.9,2.9,2.9c0.7,0,1.3-0.2,1.7-0.6c0.3-0.2,0.6-0.2,0.9,0
	C55.5,72.7,55.9,72.9,56.4,72.9z"/>
<path class="st2" d="M65.5,61.1c-1.6,0-2.9,1.3-2.9,2.9v7.6c0,0.6-0.4,1.1-0.9,1.3v0c0.5-0.1,0.9-0.3,1.3-0.5c0.3-0.2,0.6-0.2,0.9,0
	c0.5,0.4,1.1,0.6,1.7,0.6c1.6,0,2.9-1.3,2.9-2.9c0-0.8-0.7-1.5-1.5-1.5v2.8c0,0.8-0.6,1.4-1.4,1.4c-0.8,0-1.4-0.6-1.4-1.4v-8.5
	c0-0.8,0.6-1.4,1.4-1.4c0.8,0,1.4,0.6,1.4,1.4v0.9c0,0.8,0.7,1.5,1.5,1.5V64C68.5,62.5,67.1,61.1,65.5,61.1z"/>
<path class="st3" d="M65.5,65.7c-0.1,0-0.2,0-0.3,0c0,0.9,0.8,1.5,1.6,1.5c0.8,0,1.5,0.6,1.6,1.4h0c0-0.7-0.2-1.3-0.6-1.8
	C67.3,66.1,66.5,65.7,65.5,65.7z"/>
<g>
	<path class="st4" d="M59.7,29.7c0.8,0,1.4-0.6,1.4-1.4c0-0.8-0.6-1.4-1.4-1.4c-0.8,0-1.4,0.6-1.4,1.4C58.3,29,58.9,29.7,59.7,29.7z
		"/>
	<path class="st4" d="M55.4,29.2c0.5,0,1-0.4,1-1c0-0.5-0.4-1-1-1c-0.5,0-1,0.4-1,1C54.4,28.8,54.9,29.2,55.4,29.2z"/>
	<path class="st4" d="M64,29.2c0.5,0,1-0.4,1-1c0-0.5-0.4-1-1-1c-0.6,0-1,0.4-1,1C63,28.8,63.4,29.2,64,29.2z"/>
	<path class="st4" d="M115,37.6L94.7,22.8c-0.3-0.2-0.8-0.3-1.1,0l-12.7,7.9H70.8c0.2-0.8,0.3-1.6,0.3-2.5C71.1,22.1,66,17,59.7,17
		c-3,0-5.9,1.2-8,3.3c-2.2,2.1-3.3,5-3.3,8c0,0.8,0.1,1.7,0.3,2.5H37.2l-12.7-7.9c-0.3-0.2-0.8-0.2-1.1,0L3,37.6
		c-0.3,0.2-0.4,0.5-0.4,0.9c0,0.3,0.2,0.7,0.6,0.8L21,48.2V81c0,4.9,4,8.9,9,8.9h58c5,0,9-4,9-8.9V48.2l17.8-8.9
		c0.3-0.2,0.5-0.5,0.6-0.8C115.4,38.1,115.3,37.8,115,37.6z M53.1,21.7c1.8-1.8,4.1-2.7,6.6-2.7c5.2,0,9.4,4.2,9.4,9.3
		c0,0.9-0.1,1.7-0.3,2.5c-0.1,0.3-0.2,0.7-0.3,1c-0.1,0.3-0.3,0.7-0.5,1c-1.6,2.9-4.7,4.8-8.2,4.8c-1.5,0-3-0.3-4.3-1
		c-0.1-0.1-0.3-0.1-0.5-0.1c-0.1,0-0.1,0-0.2,0l-4,0.8c0,0,0,0,0,0l0.9-3.7c0.1-0.3,0-0.5-0.1-0.7c0,0,0,0,0-0.1
		c-0.2-0.3-0.3-0.7-0.5-1c-0.1-0.3-0.2-0.7-0.3-1c-0.2-0.8-0.3-1.6-0.3-2.5C50.3,25.8,51.3,23.5,53.1,21.7z M37.3,32.7h12
		c0.1,0.2,0.2,0.5,0.3,0.7l-0.8,3.3c-0.1,0.3-0.1,0.6,0,0.9c0.2,1.1,1.3,1.8,2.4,1.6l3.7-0.7c1.5,0.7,3.2,1.1,4.9,1.1
		c4.7,0,8.7-2.8,10.4-6.8h10.6l13,13.8l0,0H24.3l0,0L37.3,32.7z M21.8,46.3L5.5,38.3L24,24.9l11.3,7.1l0,0L21.8,46.3L21.8,46.3z
		 M95,81c0,3.8-3.1,6.9-7,6.9H30c-3.9,0-7-3.1-7-6.9V48.6h72V81z M96.2,46.3L82.7,31.9L94,24.9l18.4,13.4L96.2,46.3z"/>
</g>
</svg>
