<svg width="64" height="64" viewBox="0 0 64 64" fill="none" xmlns="http://www.w3.org/2000/svg">
<g clip-path="url(#clip0_1541_19651)">
<path d="M27.44 51.22H18.57C16.88 51.22 15.5 49.84 15.5 48.15V16.57C15.5 14.88 16.88 13.5 18.57 13.5H43.11C44.8 13.5 46.18 14.88 46.18 16.57V33.33C46.18 33.74 46.52 34.08 46.93 34.08C47.34 34.08 47.68 33.74 47.68 33.33V16.57C47.68 14.05 45.63 12 43.11 12H18.57C16.05 12 14 14.05 14 16.57V48.15C14 50.67 16.05 52.72 18.57 52.72H27.44C27.85 52.72 28.19 52.38 28.19 51.97C28.19 51.55 27.86 51.22 27.44 51.22Z" fill="#1D1D1D"/>
<path d="M49.99 40.8998C49.91 40.6498 49.7 40.4498 49.43 40.3998L43.66 39.1598L40.7 34.0598C40.43 33.5998 39.67 33.5998 39.4 34.0598L36.44 39.1598L30.67 40.3998C30.41 40.4598 30.2 40.6498 30.11 40.8998C30.02 41.1498 30.09 41.4298 30.27 41.6298L34.21 46.0198L33.6 51.8898C33.57 52.1598 33.69 52.4198 33.91 52.5698C34.13 52.7298 34.41 52.7598 34.65 52.6498L40.04 50.2598L45.43 52.6498C45.53 52.6898 45.63 52.7098 45.73 52.7098C45.89 52.7098 46.04 52.6598 46.17 52.5698C46.39 52.4098 46.5 52.1498 46.48 51.8898L45.87 46.0198L49.81 41.6298C50.02 41.4298 50.08 41.1498 49.99 40.8998ZM44.56 45.2698C44.42 45.4298 44.35 45.6398 44.37 45.8498L44.88 50.7598L40.36 48.7598C40.26 48.7198 40.16 48.6998 40.06 48.6998C39.96 48.6998 39.85 48.7198 39.76 48.7598L35.24 50.7598L35.75 45.8498C35.77 45.6398 35.7 45.4298 35.56 45.2698L32.26 41.5898L37.09 40.5498C37.3 40.5098 37.48 40.3798 37.58 40.1898L40.06 35.9198L42.54 40.1898C42.65 40.3698 42.82 40.4998 43.03 40.5498L47.86 41.5898L44.56 45.2698Z" fill="#1D1D1D"/>
<path d="M30.8799 20.1895H20.6499C20.2399 20.1895 19.8999 20.5295 19.8999 20.9395C19.8999 21.3495 20.2399 21.6895 20.6499 21.6895H30.8699C31.2799 21.6895 31.6199 21.3495 31.6199 20.9395C31.6299 20.5195 31.2899 20.1895 30.8799 20.1895Z" fill="#1D1D1D"/>
<path d="M30.8799 26.9297H20.6499C20.2399 26.9297 19.8999 27.2697 19.8999 27.6797C19.8999 28.0897 20.2399 28.4297 20.6499 28.4297H30.8699C31.2799 28.4297 31.6199 28.0897 31.6199 27.6797C31.6299 27.2697 31.2899 26.9297 30.8799 26.9297Z" fill="#1D1D1D"/>
</g>
<defs>
<clipPath id="clip0_1541_19651">
<rect width="36.03" height="40.72" fill="white" transform="translate(14 12)"/>
</clipPath>
</defs>
</svg>
