<svg width="62" height="62" viewBox="0 0 62 62" fill="none" xmlns="http://www.w3.org/2000/svg">
<g clip-path="url(#clip0_654_4646)">
<path d="M49.1735 31.0041C49.1735 20.9885 41.0218 12.8386 31.0041 12.8386C20.9863 12.8386 12.8347 20.9885 12.8347 31.0041C12.8347 41.0197 20.9863 49.1696 31.0041 49.1696C41.0218 49.1696 49.1735 41.0197 49.1735 31.0041ZM31.0041 48.3513C21.4365 48.3513 13.6531 40.5696 13.6531 31.0041C13.6531 21.4386 21.4365 13.6569 31.0041 13.6569C40.5717 13.6569 48.355 21.4386 48.355 31.0041C48.355 40.5696 40.5717 48.3513 31.0041 48.3513Z" fill="black"/>
<path d="M60.3368 32.6734C60.1404 31.5605 60.1404 30.4395 60.3368 29.3266L60.8443 26.4627C61.4499 23.0342 60.3123 19.5484 57.816 17.1345L55.7208 15.1134C54.9106 14.3278 54.2476 13.4196 53.7565 12.4049L52.4798 9.78646C50.9575 6.66068 47.9865 4.50865 44.5409 4.01769L41.66 3.60855C40.5469 3.45308 39.4747 3.10123 38.4762 2.57754L35.9063 1.2274C32.8372 -0.409133 29.1705 -0.409133 26.0932 1.2274L23.5233 2.5939C22.533 3.11759 21.4608 3.46945 20.3477 3.62492L17.4668 4.03405C14.0212 4.51683 11.0584 6.67705 9.52793 9.80282L8.25116 12.4213C7.7601 13.4359 7.09716 14.3442 6.2869 15.1297L4.19169 17.1345C1.68726 19.5484 0.557805 23.0342 1.16345 26.4627L1.67089 29.3266C1.86731 30.4395 1.86731 31.5605 1.67089 32.6734L1.16345 35.5373C0.557805 38.9658 1.69544 42.4516 4.19169 44.8655L6.2869 46.8866C7.09716 47.6722 7.7601 48.5804 8.25116 49.5951L9.52793 52.2135C11.0502 55.3393 14.0212 57.4914 17.4668 57.9823L20.3477 58.3833C21.4608 58.5387 22.533 58.8906 23.5315 59.4143L26.1014 60.7808C27.6401 61.5991 29.3179 62.0082 31.0039 62.0082C32.6898 62.0082 34.3758 61.5991 35.9063 60.7808L38.4762 59.4143C39.4747 58.8824 40.5387 58.5387 41.66 58.3833L44.5409 57.9823C47.9865 57.4995 50.9493 55.3393 52.4798 52.2135L53.7565 49.5951C54.2476 48.5804 54.9106 47.6722 55.7208 46.8866L57.816 44.8655C60.3205 42.4516 61.4499 38.9658 60.8443 35.5373L60.3368 32.6734ZM59.5347 32.8125L60.0422 35.6764C60.5987 38.8349 59.5511 42.0507 57.2513 44.2764L55.1561 46.2975C54.2804 47.1485 53.5601 48.1304 53.02 49.2351L51.7432 51.8535C50.3355 54.7338 47.6019 56.7222 44.4263 57.1641L41.5454 57.565C40.3341 57.7368 39.1719 58.1132 38.0916 58.686L35.5217 60.0525C32.6898 61.5581 29.3097 61.5581 26.4779 60.0525L23.908 58.686C22.8276 58.1132 21.6654 57.7368 20.4541 57.565L17.5732 57.1641C14.3977 56.714 11.6641 54.7338 10.2563 51.8535L8.97958 49.2351C8.4394 48.1386 7.72736 47.1485 6.84344 46.2975L4.74823 44.2764C2.44022 42.0507 1.4008 38.8349 1.95734 35.6764L2.46478 32.8125C2.67757 31.6096 2.67757 30.3904 2.46478 29.1875L1.95734 26.3236C1.4008 23.1651 2.44841 19.9493 4.74823 17.7236L6.84344 15.7025C7.71917 14.8515 8.4394 13.8696 8.97958 12.7649L10.2563 10.1465C11.6641 7.2662 14.3977 5.27781 17.5732 4.83595L20.4541 4.42682C21.6654 4.25498 22.8276 3.87858 23.908 3.30579L26.4779 1.93929C27.8938 1.19467 29.4488 0.818266 31.0039 0.818266C32.5589 0.818266 34.1058 1.19467 35.5217 1.94747L38.0916 3.31398C39.1719 3.88676 40.3341 4.26316 41.5454 4.435L44.4263 4.84413C47.6019 5.29418 50.3355 7.27438 51.7432 10.1547L53.02 12.7731C53.5519 13.8696 54.2722 14.8597 55.1561 15.7107L57.2513 17.7318C59.5593 19.9575 60.5987 23.1733 60.0422 26.3318L59.5347 29.1957C59.322 30.3904 59.322 31.6096 59.5347 32.8125Z" fill="black"/>
<path d="M16.5995 16.8563L15.0363 15.1216L17.6144 12.7895L16.9514 12.0612L14.3733 14.3933L13.3339 13.2395L16.3703 10.4984L15.6665 9.71282L11.7379 13.2641L15.7074 17.6582L16.5995 16.8563Z" fill="black"/>
<path d="M24.6202 11.8321L24.2028 10.1956L26.0034 9.74555L27.493 11.1039L28.917 10.7438L27.2065 9.22186C27.4029 9.08275 27.5666 8.92728 27.6976 8.76363C27.8285 8.59997 27.9267 8.41996 27.9922 8.23176C28.0577 8.04355 28.0904 7.84717 28.0986 7.6426C28.0986 7.43804 28.074 7.22529 28.0249 7.01254C27.9431 6.69341 27.8203 6.42339 27.6566 6.20246C27.493 5.98152 27.2802 5.80969 27.0183 5.68695C26.7645 5.56421 26.4617 5.49875 26.1098 5.49056C25.7579 5.48238 25.3732 5.53148 24.9312 5.64603L22.0094 6.38247L23.4662 12.1185L24.6202 11.8321ZM25.2095 6.6525C25.6515 6.53794 26.0034 6.54613 26.2735 6.66068C26.5436 6.77524 26.7154 6.99617 26.7891 7.32348C26.83 7.48713 26.8382 7.6426 26.8218 7.78989C26.7973 7.93718 26.7482 8.0681 26.6581 8.19084C26.5681 8.31358 26.4535 8.41996 26.298 8.50996C26.1425 8.59997 25.9625 8.6818 25.7415 8.7309L23.9573 9.18094L23.4253 7.10255L25.2095 6.6525Z" fill="black"/>
<path d="M38.7547 11.0875L34.949 10.1383L35.35 8.5427L38.6483 9.36096L38.8938 8.40359L35.5873 7.58532L35.8738 6.43975L39.6059 7.36439L39.8596 6.34156L34.9653 5.12234L33.5331 10.8666L38.501 12.1103L38.7547 11.0875Z" fill="black"/>
<path d="M47.0046 16.8235L44.05 14.246L45.1304 13.0022L47.6921 15.2361L48.3469 14.4915L45.777 12.2576L46.5545 11.3657L49.4518 13.8942L50.1474 13.1004L46.3417 9.78646L42.4541 14.2542L46.3171 17.6173L47.0046 16.8235Z" fill="black"/>
<path d="M11.5333 43.2372C11.4842 42.959 11.3778 42.6644 11.2223 42.3534C11.1405 42.1898 11.0423 42.0261 10.9359 41.8543C10.8295 41.6906 10.7231 41.527 10.6167 41.3715C10.5103 41.216 10.4121 41.0606 10.322 40.9215C10.232 40.7742 10.1502 40.6514 10.0929 40.5287C9.94555 40.2341 9.88826 39.9968 9.91281 39.8004C9.93736 39.6041 10.0356 39.4731 10.1911 39.3913C10.2729 39.3504 10.363 39.334 10.4694 39.334C10.5757 39.334 10.6903 39.375 10.8131 39.4568C10.9359 39.5386 11.0668 39.6613 11.2059 39.825C11.3451 39.9968 11.4924 40.226 11.6397 40.5205C11.7461 40.7251 11.8362 40.9378 11.9098 41.1506C11.9835 41.3633 12.0489 41.5679 12.1062 41.7807C12.1553 41.9852 12.2044 42.1898 12.2372 42.3944C12.2699 42.5907 12.2863 42.7871 12.3027 42.9671L13.4076 42.9999C13.3994 42.7789 13.3748 42.5498 13.3339 42.3043C13.293 42.0589 13.2439 41.8134 13.1784 41.5597C13.1129 41.3061 13.0311 41.0606 12.9329 40.8069C12.8347 40.5533 12.7283 40.3078 12.6137 40.0705C12.45 39.7432 12.2781 39.465 12.1062 39.2277C11.9344 38.9986 11.7543 38.8022 11.5742 38.6467C11.3942 38.4912 11.2141 38.3767 11.0341 38.2948C10.854 38.213 10.674 38.1639 10.5021 38.1394C10.3302 38.1148 10.1583 38.123 9.99465 38.1557C9.83097 38.1885 9.68365 38.2376 9.53633 38.3112C9.2908 38.4339 9.10255 38.5894 8.9716 38.7858C8.84065 38.974 8.75881 39.1868 8.71789 39.4159C8.67696 39.645 8.68515 39.8823 8.73425 40.1359C8.78336 40.3814 8.86521 40.6269 8.98797 40.8642C9.06163 41.0033 9.14348 41.1506 9.24987 41.3061C9.35627 41.4615 9.45448 41.6088 9.56088 41.7643C9.66728 41.9198 9.77368 42.0752 9.87189 42.2225C9.9701 42.378 10.0601 42.5253 10.1338 42.6726C10.3057 43.0081 10.3711 43.2781 10.3384 43.499C10.3057 43.7118 10.1993 43.8754 10.0028 43.9654C9.88007 44.0227 9.75731 44.0472 9.62636 44.0391C9.49541 44.0227 9.35627 43.9654 9.20895 43.8672C9.06163 43.7609 8.91431 43.6136 8.75881 43.409C8.59512 43.2044 8.43961 42.9508 8.28411 42.6316C8.15316 42.3698 8.03858 42.108 7.95673 41.8625C7.86671 41.617 7.80123 41.3715 7.75212 41.126C7.70302 40.8887 7.67846 40.6433 7.6621 40.406C7.65391 40.1687 7.64573 39.9232 7.6621 39.6777L6.50809 39.5468C6.49172 39.8086 6.49991 40.0787 6.52446 40.3569C6.54901 40.6433 6.58994 40.9297 6.65541 41.2242C6.72089 41.5188 6.80273 41.8216 6.90913 42.1243C7.01553 42.4271 7.14648 42.7298 7.2938 43.0244C7.52296 43.4745 7.76849 43.8672 8.03858 44.1864C8.30866 44.5137 8.59512 44.7591 8.88976 44.9392C9.1844 45.1192 9.48722 45.2174 9.79823 45.2337C10.1092 45.2583 10.4121 45.1846 10.7231 45.0374C10.9522 44.9228 11.1323 44.7755 11.2796 44.6037C11.4187 44.4318 11.517 44.2273 11.5661 43.9982C11.5906 43.7609 11.5906 43.5072 11.5333 43.2372Z" fill="black"/>
<path d="M18.8829 47.7458L17.8681 48.9077L15.0936 46.4939L16.1084 45.3237L15.1999 44.5382L11.3123 48.9978L12.2126 49.7915L14.4142 47.263L17.1888 49.6851L14.9953 52.2054L15.8956 52.9991L19.7914 48.5313L18.8829 47.7458Z" fill="black"/>
<path d="M21.7169 49.379L19.208 54.7463L20.3055 55.2591L22.8143 49.8917L21.7169 49.379Z" fill="black"/>
<path d="M29.7027 52.2545C29.5227 52.0335 29.269 51.8453 28.958 51.6899C28.647 51.5344 28.2705 51.4198 27.8203 51.338L24.743 50.7898L23.7036 56.6158L24.8821 56.8286L25.1604 55.282L27.0592 55.6257C27.5093 55.7075 27.9022 55.7239 28.2541 55.6666C28.5978 55.6175 28.9007 55.5112 29.1462 55.3557C29.3917 55.2002 29.5963 55.0038 29.7437 54.7584C29.891 54.5129 29.9974 54.2347 30.0547 53.9237C30.112 53.5964 30.112 53.2855 30.0547 53.0073C30.0056 52.729 29.8828 52.4754 29.7027 52.2545ZM28.8188 53.711C28.7861 53.8828 28.737 54.0301 28.6551 54.161C28.5733 54.2919 28.4669 54.3983 28.3359 54.472C28.205 54.5538 28.0495 54.6029 27.8694 54.6274C27.6894 54.652 27.493 54.6438 27.2638 54.6029L25.3404 54.2592L25.7333 52.0253L27.6648 52.369C28.115 52.4508 28.4342 52.6063 28.6224 52.8354C28.8188 53.0727 28.8761 53.3591 28.8188 53.711Z" fill="black"/>
<path d="M37.8708 51.9353C37.7153 51.6899 37.5107 51.5017 37.2652 51.3544C37.0196 51.2071 36.7168 51.1252 36.3731 51.0843C36.0293 51.0516 35.6283 51.0762 35.1863 51.158L32.1171 51.7308L33.2057 57.5486L34.3842 57.3277L34.0978 55.7812L35.9966 55.4293C36.4467 55.3475 36.8232 55.2166 37.126 55.0529C37.437 54.8811 37.6744 54.6847 37.8544 54.4474C38.0345 54.2101 38.1491 53.9564 38.2064 53.6782C38.2636 53.3918 38.2555 53.0973 38.1982 52.7863C38.1327 52.4672 38.0263 52.1808 37.8708 51.9353ZM36.9541 53.5064C36.9214 53.6537 36.8641 53.7928 36.7659 53.9074C36.6677 54.0301 36.5449 54.1283 36.3894 54.2183C36.2339 54.3083 36.0375 54.3656 35.8165 54.4065L33.9014 54.7665L33.4839 52.5408L35.3991 52.1808C35.8492 52.099 36.2012 52.1317 36.4631 52.279C36.725 52.4263 36.8887 52.68 36.9541 53.0236C36.9869 53.1955 36.9869 53.3591 36.9541 53.5064Z" fill="black"/>
<path d="M40.4364 49.3034L39.3443 49.8273L41.9042 55.1612L42.9963 54.6373L40.4364 49.3034Z" fill="black"/>
<path d="M46.0143 45.201L47.2911 46.6575L43.248 47.6476L42.3477 48.4413L46.2598 52.8763L47.1601 52.0826L44.091 48.605L48.1341 47.6067L49.9265 49.6442L50.8267 48.8505L46.9146 44.4073L46.0143 45.201Z" fill="black"/>
<path d="M54.698 39.154C54.5179 38.9495 54.3051 38.7694 54.0596 38.6221C53.8141 38.4749 53.5358 38.3603 53.2411 38.2867V38.2948L51.8498 41.1179L52.7337 41.5515L53.6504 39.6941C53.8222 39.8168 53.9614 39.9641 54.0596 40.1441C54.1578 40.316 54.2233 40.5123 54.256 40.7251C54.2887 40.9378 54.2724 41.1588 54.2315 41.4042C54.1824 41.6415 54.1005 41.8952 53.9696 42.1489C53.8141 42.468 53.6258 42.738 53.4048 42.959C53.1839 43.1717 52.9547 43.3354 52.701 43.4417C52.4554 43.5481 52.1935 43.5972 51.9235 43.589C51.6534 43.5808 51.3915 43.5154 51.1296 43.3845C50.8758 43.2617 50.6631 43.0981 50.4994 42.8935C50.3357 42.6971 50.2211 42.468 50.1556 42.2062C50.0901 41.9443 50.082 41.6661 50.1229 41.3633C50.172 41.0606 50.2702 40.7415 50.4339 40.406C50.5075 40.2587 50.5812 40.1196 50.6712 39.9887C50.7613 39.8495 50.8513 39.7268 50.9495 39.6041C51.0477 39.4813 51.1459 39.3749 51.2523 39.2849C51.3587 39.1949 51.4569 39.1049 51.5552 39.0395L50.9822 38.1394C50.8186 38.2539 50.6631 38.3767 50.5157 38.5158C50.3684 38.6549 50.2293 38.8103 50.0983 38.9658C49.9674 39.1295 49.8528 39.2931 49.7382 39.4731C49.6318 39.645 49.5254 39.825 49.4354 40.0132C49.1899 40.5205 49.0343 41.0033 48.9771 41.4697C48.9198 41.9279 48.9443 42.3534 49.0589 42.7462C49.1653 43.1308 49.3454 43.4745 49.6073 43.7772C49.861 44.08 50.1802 44.3173 50.5567 44.5055C50.9413 44.6937 51.3342 44.8001 51.7434 44.8246C52.1526 44.8491 52.5455 44.7837 52.9383 44.6364C53.3312 44.4891 53.6831 44.2518 54.0187 43.9327C54.3542 43.6136 54.6489 43.2044 54.8862 42.7135C55.0581 42.3616 55.1809 42.0179 55.2545 41.6825C55.3282 41.347 55.3527 41.0278 55.3282 40.7333C55.3036 40.4305 55.2381 40.1523 55.1317 39.8905C55.0172 39.5959 54.878 39.3668 54.698 39.154Z" fill="black"/>
<path d="M45.0158 28.0501L43.7472 26.7C43.3789 26.3072 42.8551 26.0781 42.3149 26.0781H38.3373V25.4808C38.3373 24.5562 37.5843 23.8115 36.6677 23.8115H23.769C22.8442 23.8115 22.0994 24.5643 22.0994 25.4808V26.1927H19.9387V27.011H25.5451V26.1927H22.9179V25.4808C22.9179 25.0144 23.3025 24.6298 23.769 24.6298H36.6595C37.126 24.6298 37.5107 25.0144 37.5107 25.4808V35.3327H36.0948C35.8984 34.3099 35.0063 33.5325 33.9259 33.5325C32.8456 33.5325 31.9535 34.3099 31.757 35.3327H28.6388C28.4423 34.3099 27.5502 33.5325 26.4699 33.5325C25.3896 33.5325 24.4975 34.3099 24.301 35.3327H23.7609C23.2943 35.3327 22.9097 34.9481 22.9097 34.4817V32.6324H19.063V33.4507H22.0912V34.4817C22.0912 35.4064 22.8442 36.151 23.7609 36.151H24.301C24.4975 37.1738 25.3896 37.9512 26.4699 37.9512C27.5502 37.9512 28.4423 37.1738 28.6388 36.151H31.757C31.9535 37.1738 32.8456 37.9512 33.9259 37.9512C35.0063 37.9512 35.8984 37.1738 36.0948 36.151H39.3604C39.5568 37.1738 40.4489 37.9512 41.5292 37.9512C42.6096 37.9512 43.5017 37.1738 43.6981 36.151H45.5478V29.3921C45.5396 28.893 45.3514 28.4184 45.0158 28.0501ZM26.4781 37.1329C25.7087 37.1329 25.0867 36.511 25.0867 35.7419C25.0867 34.9727 25.7087 34.3508 26.4781 34.3508C27.2474 34.3508 27.8694 34.9727 27.8694 35.7419C27.8694 36.511 27.2392 37.1329 26.4781 37.1329ZM33.9341 37.1329C33.1648 37.1329 32.5427 36.511 32.5427 35.7419C32.5427 34.9727 33.1648 34.3508 33.9341 34.3508C34.7034 34.3508 35.3254 34.9727 35.3254 35.7419C35.3254 36.511 34.6952 37.1329 33.9341 37.1329ZM41.5292 37.1329C40.7599 37.1329 40.1379 36.511 40.1379 35.7419C40.1379 34.9727 40.7599 34.3508 41.5292 34.3508C42.2986 34.3508 42.9206 34.9727 42.9206 35.7419C42.9206 36.511 42.2986 37.1329 41.5292 37.1329ZM44.7212 35.3327H43.6899C43.4935 34.3099 42.6014 33.5325 41.521 33.5325C40.4407 33.5325 39.5486 34.3099 39.3522 35.3327H38.3209V26.8964H42.2986C42.6178 26.8964 42.9206 27.0273 43.1334 27.2564L44.402 28.6066C44.5984 28.8193 44.713 29.0975 44.713 29.3921V35.3327H44.7212Z" fill="black"/>
<path d="M40.9809 29.0648H40.1624V32.297H43.4198V31.4787H40.9809V29.0648Z" fill="black"/>
<path d="M24.0555 30.595H17.1888V31.4132H24.0555V30.595Z" fill="black"/>
<path d="M28.4914 28.3938H21.3137V29.2121H28.4914V28.3938Z" fill="black"/>
<path d="M18.932 28.3938H14.6189V29.2121H18.932V28.3938Z" fill="black"/>
</g>
<defs>
<clipPath id="clip0_654_4646">
<rect width="62" height="62" fill="white"/>
</clipPath>
</defs>
</svg>
