<svg width="64" height="64" viewBox="0 0 64 64" fill="none" xmlns="http://www.w3.org/2000/svg">
<g clip-path="url(#clip0_1541_19661)">
<path d="M45.15 12H19.85C17.17 12 15 14.17 15 16.85V49.33C15 50.52 15.61 51.6 16.63 52.23C17.18 52.56 17.78 52.73 18.4 52.73C18.93 52.73 19.46 52.6 19.95 52.35L31.19 46.57C32.19 46.05 33.39 46.06 34.38 46.59L45 52.24C46.06 52.81 47.31 52.77 48.34 52.16C49.37 51.54 49.99 50.45 49.99 49.25V16.85C49.99 14.17 47.82 12 45.15 12ZM48.49 49.25C48.49 49.92 48.15 50.53 47.57 50.87C47 51.22 46.3 51.23 45.71 50.92L35.08 45.25C33.65 44.49 31.94 44.48 30.5 45.22L19.26 51.01C18.67 51.31 17.98 51.29 17.41 50.94C16.84 50.59 16.5 49.99 16.5 49.32V16.85C16.5 15 18 13.5 19.85 13.5H45.15C46.99 13.5 48.5 15 48.5 16.85V49.25H48.49Z" fill="#1D1D1D"/>
<path d="M39.9399 22.36C37.9999 20.78 35.0199 20.99 33.1699 22.84L32.4899 23.52L31.8099 22.84C29.9599 20.99 26.9799 20.78 25.0399 22.36C23.9599 23.24 23.2999 24.55 23.2299 25.95C23.1599 27.35 23.6799 28.72 24.6699 29.7L30.1799 35.21C30.8199 35.85 31.6599 36.17 32.4999 36.17C33.3399 36.17 34.1799 35.85 34.8199 35.21L40.3299 29.7C41.3199 28.72 41.8399 27.35 41.7699 25.95C41.6899 24.55 41.0199 23.24 39.9399 22.36ZM39.2599 28.64L33.7499 34.15C33.0599 34.84 31.9299 34.84 31.2399 34.15L25.7299 28.64C25.0399 27.95 24.6799 27 24.7299 26.02C24.7799 25.03 25.2299 24.14 25.9999 23.52C26.5999 23.03 27.3499 22.79 28.0999 22.79C29.0499 22.79 30.0199 23.17 30.7499 23.9L31.9599 25.11C32.2499 25.4 32.7299 25.4 33.0199 25.11L34.2299 23.9C35.5499 22.58 37.6399 22.42 38.9899 23.52C39.7599 24.15 40.2099 25.04 40.2599 26.02C40.3099 27 39.9399 27.95 39.2599 28.64Z" fill="#1D1D1D"/>
</g>
<defs>
<clipPath id="clip0_1541_19661">
<rect width="34.99" height="40.72" fill="white" transform="translate(15 12)"/>
</clipPath>
</defs>
</svg>
