<svg width="51" height="32" viewBox="0 0 51 32" fill="none" xmlns="http://www.w3.org/2000/svg">
<g clip-path="url(#clip0_835_170)">
<path d="M26.6583 30.4693C27.6569 31.1994 28.8335 31.7016 30.1106 31.9012V31.883C28.6338 31.3717 27.5736 29.9773 27.5736 28.3358V16.345C27.5736 14.0686 25.7157 12.2241 23.4252 12.2241V28.3358C23.4252 29.9773 22.365 31.3717 20.8882 31.883V31.9012C22.1664 31.7005 23.343 31.1983 24.3405 30.4693C25.0298 29.966 25.969 29.966 26.6583 30.4693Z" fill="#1D1D1D"/>
<path d="M18.3992 31.9025V31.8844C16.9224 31.3731 15.8622 29.9787 15.8622 28.3371V4.12088C15.861 1.84561 14.0042 0 11.7126 0V27.5413C11.7126 29.6125 10.0441 31.33 7.95905 31.3459C5.85687 31.3617 4.14843 29.6737 4.14843 27.5889V24.1233C4.14843 21.8469 2.29048 20.0024 0 20.0024V24.1222C0 28.4732 3.55042 32 7.93052 32C9.68575 32 11.3075 31.4332 12.621 30.4752C13.3138 29.9696 14.2542 29.9639 14.9469 30.4696C15.9443 31.1996 17.121 31.7018 18.3992 31.9025Z" fill="#1D1D1D"/>
<path d="M43.0696 0C38.6895 0 35.139 3.52684 35.139 7.87785V28.336C35.139 29.9775 34.0788 31.372 32.6021 31.8832V31.9014C33.8791 31.7007 35.0557 31.1985 36.0543 30.4696C36.7459 29.9639 37.6874 29.9696 38.3802 30.4752C39.6938 31.4343 41.3155 32 43.0707 32C47.4508 32 51.0012 28.4732 51.0012 24.1222C51.0012 21.8458 49.1444 20.0013 46.8528 20.0013V27.5889C46.8528 29.6737 45.1443 31.3617 43.0422 31.3459C40.9571 31.33 39.2886 29.6136 39.2886 27.5413V4.45871C39.2886 2.3875 40.9571 0.669997 43.0422 0.654126C45.1443 0.638254 46.8528 2.32628 46.8528 4.4111V6.84281C46.8528 9.11921 48.7096 10.9637 51.0012 10.9637V7.87785C51.0001 3.52684 47.4485 0 43.0696 0Z" fill="#1D1D1D"/>
<path d="M43.0693 12.2241C42.7931 12.2241 42.5203 12.2377 42.251 12.2661C42.3777 14.5753 44.3246 16.3382 46.606 16.3382C48.7858 16.3382 50.6437 17.8652 50.9621 20.102H50.9998C50.9998 18.3142 50.3995 16.6658 49.3883 15.344C47.9401 13.4473 45.6485 12.2241 43.0693 12.2241Z" fill="#E44589"/>
</g>
<defs>
<clipPath id="clip0_835_170">
<rect width="51" height="32" fill="white"/>
</clipPath>
</defs>
</svg>
