<svg width="174" height="54" viewBox="0 0 174 54" fill="none" xmlns="http://www.w3.org/2000/svg">
<path fill-rule="evenodd" clip-rule="evenodd" d="M95.2091 11.8321C97.5566 11.8284 99.728 12.4191 101.723 13.5966C103.718 14.7779 105.3 16.5082 106.476 18.7913C107.652 21.0782 108.237 23.7667 108.237 26.86C108.237 29.9533 107.651 32.6377 106.476 34.9018C105.3 37.1698 103.718 38.8927 101.723 40.0703C99.728 41.2478 97.5566 41.8384 95.2091 41.8384C93.4207 41.8384 91.7623 41.4864 90.2343 40.7898C88.7062 40.0893 87.4387 39.0213 86.4315 37.5825V54H78.6612V12.5476H85.4816L85.6503 14.4256C85.6886 14.7929 85.7231 15.183 85.7613 15.5881C85.7996 15.9932 85.853 16.4174 85.9296 16.8604C86.9368 15.1642 88.2505 13.9033 89.8704 13.0741C91.4903 12.2449 93.2713 11.8321 95.2091 11.8321ZM93.4206 18.4053C91.4828 18.4053 89.8319 19.1171 88.4724 20.5332C87.113 21.953 86.4315 24.062 86.4315 26.8637C86.4315 29.6277 87.1016 31.6838 88.4458 33.0279C89.7862 34.372 91.4446 35.0457 93.4206 35.0457C95.4349 35.0456 97.0624 34.315 98.3147 32.8612C99.5631 31.4072 100.188 29.4081 100.188 26.8637C100.188 24.2474 99.5709 22.1837 98.3416 20.673C97.1123 19.1623 95.4694 18.4053 93.4206 18.4053Z" fill="#1D1D1D"/>
<path fill-rule="evenodd" clip-rule="evenodd" d="M58.2529 11.8284C60.8609 11.8285 63.2927 12.4455 65.5483 13.6798C67.804 14.9141 69.6117 16.6749 70.9712 18.958C72.3307 21.2449 73.0124 23.8764 73.0124 26.8637C73.0124 29.8511 72.3307 32.4826 70.9712 34.7695C69.6117 37.0564 67.804 38.8057 65.5483 40.0211C63.2927 41.2365 60.8609 41.8458 58.2529 41.8458C55.6067 41.8458 53.1478 41.2365 50.873 40.0211C48.5982 38.8057 46.7831 37.0563 45.4236 34.7695C44.0641 32.4864 43.3824 29.8511 43.3824 26.8637C43.3824 23.8764 44.0641 21.2449 45.4236 18.958C46.7831 16.6749 48.602 14.9141 50.873 13.6798C53.1478 12.4455 55.6067 11.8284 58.2529 11.8284ZM58.1991 18.511C56.2613 18.511 54.649 19.2684 53.3623 20.7791C52.0755 22.2898 51.4321 24.3157 51.4321 26.86C51.4322 29.4043 52.0794 31.4223 53.3623 32.914C54.649 34.4058 56.2613 35.1518 58.1991 35.1518C60.1369 35.1518 61.7417 34.4058 63.0093 32.914C64.2769 31.4223 64.9088 29.4043 64.9088 26.86C64.9088 24.3157 64.2731 22.2898 63.0093 20.7791C61.7417 19.2683 60.1369 18.511 58.1991 18.511Z" fill="#1D1D1D"/>
<path d="M123.882 11.8284C126.788 11.8285 129.247 12.4455 131.261 13.6798C133.276 14.9141 134.539 16.546 135.064 18.5716L129.419 21.7219C128.301 19.3253 126.421 18.1287 123.774 18.1287C122.656 18.1287 121.76 18.3407 121.09 18.7647C120.42 19.1887 120.082 19.7871 120.082 20.5594C120.082 21.4454 120.531 22.1156 121.423 22.5776C122.319 23.0395 123.717 23.528 125.616 24.0429C127.631 24.5957 129.285 25.1484 130.591 25.7012C131.897 26.254 133.015 27.0907 133.946 28.2152C134.876 29.3397 135.344 30.824 135.344 32.6641C135.351 35.5037 134.241 37.7453 132.023 39.3847C129.806 41.0242 126.926 41.8458 123.384 41.8458C120.328 41.8458 117.689 41.2024 115.471 39.9113C113.254 38.6201 111.753 36.8329 110.972 34.5498L116.617 31.2897C117.176 32.6528 118.053 33.7132 119.244 34.4666C120.435 35.2239 121.833 35.5984 123.437 35.5984C124.628 35.5984 125.582 35.3788 126.29 34.9358C126.999 34.4929 127.351 33.8681 127.351 33.0579C127.351 32.1379 126.884 31.4263 125.953 30.9303C125.023 30.4343 123.567 29.9079 121.591 29.3551C119.615 28.7645 118.003 28.1927 116.755 27.6399C115.506 27.0871 114.426 26.2844 113.511 25.2357C112.596 24.1869 112.14 22.8122 112.14 21.1159C112.14 19.2001 112.672 17.5418 113.733 16.1409C114.794 14.74 116.222 13.6723 118.011 12.934C119.799 12.1957 121.756 11.8284 123.882 11.8284Z" fill="#1D1D1D"/>
<path fill-rule="evenodd" clip-rule="evenodd" d="M19.5121 0C23.1656 1.13761e-05 26.4745 0.836647 29.4348 2.51396C32.3989 4.19127 34.7464 6.61461 36.4774 9.78369C38.2122 12.9528 39.0777 16.6558 39.0778 20.8926C39.0778 25.1673 38.2122 28.8893 36.4774 32.0584C34.7426 35.2275 32.3951 37.6508 29.4348 39.3282C26.4707 41.0055 23.1618 41.8421 19.5121 41.8421C15.8587 41.8421 12.5498 41.0055 9.58946 39.3282C6.62531 37.6508 4.28527 35.2275 2.57342 32.0584C0.85776 28.8893 0 25.1673 0 20.8926C1.59866e-05 16.6558 0.857753 12.9528 2.57342 9.78369C4.2891 6.61458 6.62531 4.19128 9.58946 2.51396C12.5498 0.836662 15.8587 0 19.5121 0ZM19.5084 7.34923C17.3447 7.34923 15.4375 7.91349 13.7793 9.0342C12.121 10.1587 10.8341 11.7413 9.92268 13.7896C9.00741 15.8342 8.55165 18.2044 8.55164 20.8926C8.55547 23.5846 9.01124 25.9625 9.92268 28.0222C10.8341 30.0857 12.121 31.6797 13.7793 32.8042C15.4375 33.9287 17.3485 34.4892 19.5084 34.4892C21.6683 34.4892 23.5793 33.9287 25.2375 32.8042C26.8957 31.6797 28.1823 30.0856 29.0937 28.0222C30.0052 25.9587 30.4648 23.5808 30.4648 20.8926C30.4648 18.2044 30.009 15.8342 29.0937 13.7896C28.1785 11.7451 26.8957 10.1625 25.2375 9.0342C23.5793 7.90971 21.6683 7.34926 19.5084 7.34923Z" fill="#1D1D1D"/>
<path d="M162.841 30.7258C166.785 30.7258 170.415 31.7972 172.801 33.6676L170.423 36.636C168.727 35.307 165.893 34.5121 162.841 34.5121C159.788 34.5121 156.954 35.307 155.258 36.636L152.88 33.6676C155.266 31.7972 158.896 30.7258 162.841 30.7258Z" fill="#1D1D1D"/>
<path d="M156.139 18.5188C158.601 18.5188 160.596 20.4913 160.596 22.9259C160.596 25.3604 158.601 27.3333 156.139 27.3333C153.676 27.3333 151.681 25.3604 151.681 22.9259C151.681 20.4913 153.676 18.5188 156.139 18.5188Z" fill="#1D1D1D"/>
<path d="M169.542 18.5188C172.005 18.5188 174 20.4913 174 22.9259C174.004 25.3604 172.005 27.3333 169.542 27.3333C167.08 27.3333 165.085 25.3604 165.085 22.9259C165.085 20.4913 167.08 18.5188 169.542 18.5188Z" fill="#1D1D1D"/>
</svg>
