<svg width="18" height="18" viewBox="0 0 18 18" fill="none" xmlns="http://www.w3.org/2000/svg">
<path d="M15.8829 4.52433C15.5047 3.65221 14.9594 2.86259 14.2778 2.2C13.5939 1.53143 12.7877 1.00079 11.9032 0.637054C10.9831 0.255357 10.0068 0.0625 9.00031 0.0625C7.99384 0.0625 7.0175 0.255357 6.09741 0.635045C5.20746 1.00268 4.40991 1.52902 3.72286 2.19799C3.04168 2.86095 2.49644 3.65049 2.11772 4.52232C1.72598 5.42634 1.5271 6.38661 1.5271 7.375C1.5271 8.7933 1.86661 10.2056 2.53357 11.5676C3.06996 12.6625 3.81929 13.7292 4.76348 14.7437C6.37665 16.4754 8.06817 17.5342 8.54831 17.8174C8.68459 17.8979 8.84003 17.9402 8.99831 17.94C9.155 17.94 9.30969 17.8998 9.44831 17.8174C9.92844 17.5342 11.62 16.4754 13.2331 14.7437C14.1773 13.7312 14.9267 12.6625 15.463 11.5676C16.134 10.2076 16.4735 8.79732 16.4735 7.37701C16.4735 6.38862 16.2746 5.42835 15.8829 4.52433ZM9.00031 16.3991C7.67643 15.5574 2.97353 12.2246 2.97353 7.37701C2.97353 5.81205 3.59831 4.34152 4.73335 3.23259C5.87241 2.12165 7.38714 1.50893 9.00031 1.50893C10.6135 1.50893 12.1282 2.12165 13.2673 3.2346C14.4023 4.34152 15.0271 5.81205 15.0271 7.37701C15.0271 12.2246 10.3242 15.5574 9.00031 16.3991ZM9.00031 4C7.04764 4 5.4646 5.58304 5.4646 7.53571C5.4646 9.48839 7.04764 11.0714 9.00031 11.0714C10.953 11.0714 12.536 9.48839 12.536 7.53571C12.536 5.58304 10.953 4 9.00031 4ZM10.5914 9.12679C10.3827 9.33607 10.1347 9.50203 9.86164 9.61511C9.58858 9.7282 9.29586 9.78617 9.00031 9.78571C8.39964 9.78571 7.83514 9.55067 7.40924 9.12679C7.19996 8.9181 7.034 8.6701 6.92092 8.39704C6.80783 8.12398 6.74985 7.83126 6.75031 7.53571C6.75031 6.93504 6.98536 6.37054 7.40924 5.94464C7.83514 5.51875 8.39964 5.28571 9.00031 5.28571C9.60098 5.28571 10.1655 5.51875 10.5914 5.94464C11.0173 6.37054 11.2503 6.93504 11.2503 7.53571C11.2503 8.13638 11.0173 8.70089 10.5914 9.12679Z" fill="#1D1D1D"/>
</svg>
