<svg width="18" height="19" viewBox="0 0 18 19" fill="none" xmlns="http://www.w3.org/2000/svg">
<path d="M16.5593 14.4294H15.4785C15.3941 14.4294 15.3238 14.4997 15.3238 14.584V15.8256H2.67357V3.17333H15.3258V4.41484C15.3258 4.49922 15.3961 4.56953 15.4805 4.56953H16.5613C16.6457 4.56953 16.716 4.50123 16.716 4.41484V2.4019C16.716 2.06038 16.4408 1.78516 16.0992 1.78516H1.90214C1.56062 1.78516 1.2854 2.06038 1.2854 2.4019V16.597C1.2854 16.9385 1.56062 17.2137 1.90214 17.2137H16.0972C16.4388 17.2137 16.714 16.9385 16.714 16.597V14.584C16.714 14.4977 16.6437 14.4294 16.5593 14.4294ZM16.9329 9.37288L14.0823 7.12288C13.9758 7.03851 13.8211 7.11484 13.8211 7.24944V8.77623H7.51308C7.42469 8.77623 7.35237 8.84855 7.35237 8.93694V10.0619C7.35237 10.1503 7.42469 10.2227 7.51308 10.2227H13.8211V11.7494C13.8211 11.884 13.9778 11.9604 14.0823 11.876L16.9329 9.62601C16.9522 9.61097 16.9677 9.59176 16.9784 9.56984C16.9891 9.54791 16.9946 9.52384 16.9946 9.49944C16.9946 9.47505 16.9891 9.45098 16.9784 9.42905C16.9677 9.40712 16.9522 9.38791 16.9329 9.37288V9.37288Z" fill="#434343"/>
</svg>
