<svg width="18" height="18" viewBox="0 0 18 18" fill="none" xmlns="http://www.w3.org/2000/svg">
<g clip-path="url(#clip0_1181_13781)">
<path d="M16.3927 0.964844H1.60697C1.25139 0.964844 0.964111 1.25212 0.964111 1.6077V16.3934C0.964111 16.749 1.25139 17.0363 1.60697 17.0363H16.3927C16.7483 17.0363 17.0355 16.749 17.0355 16.3934V1.6077C17.0355 1.25212 16.7483 0.964844 16.3927 0.964844ZM15.5891 15.5898H2.41054V2.41127H15.5891V15.5898ZM8.59804 6.75056H12.2945C12.3829 6.75056 12.4552 6.67824 12.4552 6.58984V5.62556C12.4552 5.53717 12.3829 5.46484 12.2945 5.46484H8.59804C8.50965 5.46484 8.43733 5.53717 8.43733 5.62556V6.58984C8.43733 6.67824 8.50965 6.75056 8.59804 6.75056ZM8.59804 9.64342H12.2945C12.3829 9.64342 12.4552 9.57109 12.4552 9.4827V8.51842C12.4552 8.43002 12.3829 8.3577 12.2945 8.3577H8.59804C8.50965 8.3577 8.43733 8.43002 8.43733 8.51842V9.4827C8.43733 9.57109 8.50965 9.64342 8.59804 9.64342ZM8.59804 12.5363H12.2945C12.3829 12.5363 12.4552 12.464 12.4552 12.3756V11.4113C12.4552 11.3229 12.3829 11.2506 12.2945 11.2506H8.59804C8.50965 11.2506 8.43733 11.3229 8.43733 11.4113V12.3756C8.43733 12.464 8.50965 12.5363 8.59804 12.5363ZM5.54447 6.1077C5.54447 6.32082 5.62913 6.52521 5.77983 6.67591C5.93053 6.82661 6.13492 6.91127 6.34804 6.91127C6.56116 6.91127 6.76555 6.82661 6.91625 6.67591C7.06695 6.52521 7.15161 6.32082 7.15161 6.1077C7.15161 5.89458 7.06695 5.69019 6.91625 5.53949C6.76555 5.38879 6.56116 5.30413 6.34804 5.30413C6.13492 5.30413 5.93053 5.38879 5.77983 5.53949C5.62913 5.69019 5.54447 5.89458 5.54447 6.1077V6.1077ZM5.54447 9.00056C5.54447 9.21368 5.62913 9.41807 5.77983 9.56877C5.93053 9.71947 6.13492 9.80413 6.34804 9.80413C6.56116 9.80413 6.76555 9.71947 6.91625 9.56877C7.06695 9.41807 7.15161 9.21368 7.15161 9.00056C7.15161 8.78744 7.06695 8.58305 6.91625 8.43235C6.76555 8.28165 6.56116 8.19699 6.34804 8.19699C6.13492 8.19699 5.93053 8.28165 5.77983 8.43235C5.62913 8.58305 5.54447 8.78744 5.54447 9.00056ZM5.54447 11.8934C5.54447 12.1065 5.62913 12.3109 5.77983 12.4616C5.93053 12.6123 6.13492 12.697 6.34804 12.697C6.56116 12.697 6.76555 12.6123 6.91625 12.4616C7.06695 12.3109 7.15161 12.1065 7.15161 11.8934C7.15161 11.6803 7.06695 11.4759 6.91625 11.3252C6.76555 11.1745 6.56116 11.0898 6.34804 11.0898C6.13492 11.0898 5.93053 11.1745 5.77983 11.3252C5.62913 11.4759 5.54447 11.6803 5.54447 11.8934V11.8934Z" fill="#1D1D1D"/>
</g>
<defs>
<clipPath id="clip0_1181_13781">
<rect width="18" height="18" fill="white"/>
</clipPath>
</defs>
</svg>
