<svg width="18" height="18" viewBox="0 0 18 18" fill="none" xmlns="http://www.w3.org/2000/svg">
<path d="M12.5361 4.01507C12.5361 3.92667 12.4637 3.85435 12.3753 3.85435H4.66106C4.57267 3.85435 4.50035 3.92667 4.50035 4.01507V4.97935C4.50035 5.06775 4.57267 5.14007 4.66106 5.14007H12.3753C12.4637 5.14007 12.5361 5.06775 12.5361 4.97935V4.01507ZM12.3753 6.74721H4.66106C4.57267 6.74721 4.50035 6.81953 4.50035 6.90792V7.87221C4.50035 7.9606 4.57267 8.03292 4.66106 8.03292H12.3753C12.4637 8.03292 12.5361 7.9606 12.5361 7.87221V6.90792C12.5361 6.81953 12.4637 6.74721 12.3753 6.74721ZM8.35749 9.64007H4.66106C4.57267 9.64007 4.50035 9.71239 4.50035 9.80078V10.7651C4.50035 10.8535 4.57267 10.9258 4.66106 10.9258H8.35749C8.44589 10.9258 8.51821 10.8535 8.51821 10.7651V9.80078C8.51821 9.71239 8.44589 9.64007 8.35749 9.64007ZM7.39321 15.8276H2.89321V1.68471H14.1432V8.59542C14.1432 8.68382 14.2155 8.75614 14.3039 8.75614H15.4289C15.5173 8.75614 15.5896 8.68382 15.5896 8.59542V0.881138C15.5896 0.525558 15.3024 0.238281 14.9468 0.238281H2.08963C1.73405 0.238281 1.44678 0.525558 1.44678 0.881138V16.6311C1.44678 16.9867 1.73405 17.274 2.08963 17.274H7.39321C7.4816 17.274 7.55392 17.2017 7.55392 17.1133V15.9883C7.55392 15.8999 7.4816 15.8276 7.39321 15.8276ZM14.5611 14.3329C15.1437 13.8046 15.5093 13.0412 15.5093 12.1914C15.5093 10.5943 14.2135 9.29855 12.6164 9.29855C11.0193 9.29855 9.72356 10.5943 9.72356 12.1914C9.72356 13.0412 10.0892 13.8046 10.6718 14.3329C9.52669 14.9858 8.73919 16.1952 8.67892 17.5894C8.6749 17.6798 8.74923 17.7561 8.83964 17.7561H9.80593C9.8903 17.7561 9.96062 17.6898 9.96664 17.6035C10.045 16.2133 11.2041 15.1044 12.6164 15.1044C14.0287 15.1044 15.1879 16.2133 15.2662 17.6035C15.2702 17.6878 15.3405 17.7561 15.4269 17.7561H16.3932C16.4856 17.7561 16.5579 17.6798 16.5539 17.5894C16.4957 16.1932 15.7062 14.9858 14.5611 14.3329ZM12.6164 10.5843C13.5044 10.5843 14.2236 11.3035 14.2236 12.1914C14.2236 13.0794 13.5044 13.7986 12.6164 13.7986C11.7285 13.7986 11.0093 13.0794 11.0093 12.1914C11.0093 11.3035 11.7285 10.5843 12.6164 10.5843Z" fill="#1D1D1D"/>
</svg>
