<?xml version="1.0" standalone="no"?><!DOCTYPE svg PUBLIC "-//W3C//DTD SVG 1.1//EN" "http://www.w3.org/Graphics/SVG/1.1/DTD/svg11.dtd"><svg t="1749556393482" class="icon" viewBox="0 0 1024 1024" version="1.1" xmlns="http://www.w3.org/2000/svg" p-id="4937" width="12" height="12" xmlns:xlink="http://www.w3.org/1999/xlink"><path d="M786.261333 201.301333H91.477333a36.522667 36.522667 0 0 0-36.608 36.522667v694.869333c0 20.224 16.384 36.608 36.608 36.608h694.784a36.522667 36.522667 0 0 0 36.693334-36.608V237.824a36.522667 36.522667 0 0 0-36.693334-36.522667z m-45.653333 685.738667H137.130667V283.562667H740.693333v603.477333z m192-832h-704a9.130667 9.130667 0 0 0-9.130667 9.130667v64c0 5.034667 4.096 9.130667 9.130667 9.130666h658.261333v658.261334c0 5.034667 4.096 9.130667 9.130667 9.130666h64a9.216 9.216 0 0 0 9.130667-9.130666v-704a36.522667 36.522667 0 0 0-36.522667-36.522667z" fill="#000000" fill-opacity=".85" p-id="4938"></path></svg>