<svg width="119" height="76" viewBox="0 0 119 76" fill="none" xmlns="http://www.w3.org/2000/svg">
<g clip-path="url(#clip0_1684_31771)">
<path d="M59.5 75.9991C92.0848 75.9991 118.5 68.2334 118.5 58.6538C118.5 49.0743 92.0848 41.3086 59.5 41.3086C26.9152 41.3086 0.5 49.0743 0.5 58.6538C0.5 68.2334 26.9152 75.9991 59.5 75.9991Z" fill="#FAFAFA"/>
<path d="M78.9409 1.58203H40.0591L22.5029 21.6602V49.5C22.5029 54.5709 26.6032 58.6781 31.6538 58.6781H87.341C92.3968 58.6781 96.4918 54.5656 96.4918 49.5V21.6602L78.9409 1.58203Z" fill="white"/>
<path d="M95.4922 22.0352L78.4873 2.58203H40.5127L23.5029 22.0352V49.5C23.5029 54.0209 27.1577 57.6775 31.6533 57.6777H87.3408C91.8411 57.6777 95.4922 54.0165 95.4922 49.5V22.0352ZM97.4922 49.5C97.4922 55.1147 92.9521 59.6777 87.3408 59.6777H31.6533C26.0483 59.6775 21.5029 55.1206 21.5029 49.5V21.2842L39.6055 0.582031H79.3945L97.4922 21.2852V49.5Z" fill="#EEEEEE"/>
<path d="M42.3223 20.6602C44.9839 20.6604 47.298 22.5052 47.8955 25.1065C48.2851 26.8024 49.7879 28.0008 51.5195 28.001H67.4805C69.2075 28.0008 70.7151 26.8018 71.1045 25.1065C71.7019 22.5059 74.0102 20.6604 76.6777 20.6602H96.4971V22.6602H76.6777C74.9461 22.6604 73.4433 23.8588 73.0537 25.5547C72.456 28.1558 70.142 30.0008 67.4805 30.001H51.5195C48.8521 30.0008 46.5438 28.1551 45.9463 25.5547C45.5569 23.8594 44.0493 22.6604 42.3223 22.6602H22.5029V20.6602H42.3223Z" fill="#EEEEEE"/>
<path d="M59.9305 48.4038C60.3032 48.6777 60.739 48.8672 61.2115 48.941V48.9357C60.6655 48.7461 60.2717 48.2195 60.2717 47.6087V43.1171C60.2717 42.264 59.584 41.5742 58.7335 41.5742V47.6035C58.7335 48.2195 58.3397 48.7409 57.7937 48.9304V48.9357C58.2662 48.862 58.702 48.6724 59.0747 48.3986C59.3267 48.2143 59.6732 48.2143 59.9305 48.4038Z" fill="#434343"/>
<path d="M56.8645 48.9401V48.9348C56.3185 48.7453 55.9247 48.2187 55.9247 47.6079V38.535C55.9247 37.682 55.237 36.9922 54.3865 36.9922V47.3077C54.3865 48.0818 53.767 48.7242 52.9952 48.7347C52.2129 48.74 51.5829 48.1081 51.5829 47.3288V46.0334C51.5829 45.1804 50.8952 44.4906 50.0447 44.4906V46.0334C50.0447 47.6605 51.3624 48.9822 52.9847 48.9822C53.6357 48.9822 54.2395 48.7716 54.7225 48.4135C54.9797 48.2239 55.3262 48.2239 55.5835 48.4135C55.9562 48.6768 56.392 48.8664 56.8645 48.9401Z" fill="#434343"/>
<path d="M66.0153 36.9922C64.393 36.9922 63.0753 38.3139 63.0753 39.941V47.6026C63.0753 48.2187 62.6815 48.74 62.1355 48.9296V48.9348C62.608 48.8611 63.0438 48.6715 63.4165 48.3977C63.6738 48.2082 64.0203 48.2082 64.2775 48.3977C64.7658 48.7558 65.3643 48.9664 66.0153 48.9664C67.6375 48.9664 68.9553 47.6447 68.9553 46.0176C68.9553 45.1646 68.2675 44.4748 67.417 44.4748V47.3182C67.417 48.0976 66.7818 48.7295 66.0048 48.7242C65.233 48.7189 64.6135 48.0765 64.6135 47.2972V38.6614C64.6135 37.8874 65.233 37.2449 66.0048 37.2344C66.787 37.2291 67.417 37.861 67.417 38.6404V39.5513C67.417 40.4044 68.1048 41.0942 68.9553 41.0942V39.9357C68.9606 38.3139 67.6428 36.9922 66.0153 36.9922Z" fill="#434343"/>
<path d="M66.0153 41.5664C65.9103 41.5664 65.8106 41.5717 65.7108 41.5822C65.7581 42.4458 66.4826 43.1093 67.3278 43.1093C68.1363 43.1093 68.8241 43.6832 68.9448 44.5205H68.9606C68.9606 43.8517 68.7401 43.2356 68.3621 42.7407C67.8213 42.0245 66.9761 41.5664 66.0153 41.5664Z" fill="#E44589"/>
</g>
<defs>
<clipPath id="clip0_1684_31771">
<rect width="118" height="76" fill="white" transform="translate(0.5)"/>
</clipPath>
</defs>
</svg>
