<svg width="64" height="64" viewBox="0 0 64 64" fill="none" xmlns="http://www.w3.org/2000/svg">
<path d="M33.6305 30.75C30.8005 28.28 28.2905 26.38 26.0705 24.71C25.7405 24.46 25.2705 24.53 25.0205 24.86C24.7705 25.19 24.8405 25.66 25.1705 25.91C27.3605 27.57 29.8505 29.45 32.6505 31.89C38.6605 37.14 37.6705 45.39 36.8605 48.99C35.1105 45.87 30.8805 39.16 24.5905 34.54C16.4105 28.52 15.6705 20.7 15.8405 17.04C16.4405 17.89 17.1705 18.8 18.0205 19.75C18.3005 20.05 18.7705 20.08 19.0805 19.81C19.3905 19.53 19.4205 19.06 19.1405 18.75C17.7205 17.15 16.6605 15.71 16.0005 14.47C16.0005 14.46 15.9905 14.46 15.9805 14.45C15.9305 14.36 15.8605 14.29 15.7805 14.23C15.7705 14.23 15.7705 14.22 15.7605 14.21C15.6805 14.15 15.5905 14.11 15.4905 14.09C15.4805 14.09 15.4705 14.09 15.4605 14.09C15.4505 14.09 15.4505 14.08 15.4405 14.08C15.4105 14.08 15.3805 14.09 15.3605 14.09C15.2805 14.09 15.2105 14.09 15.1405 14.11C15.1005 14.12 15.0705 14.14 15.0305 14.15C14.9705 14.18 14.9105 14.22 14.8605 14.26C14.8405 14.28 14.8205 14.28 14.8005 14.3C14.7205 14.38 6.6405 22.82 11.6205 36.43C16.0705 48.6 36.1305 51.63 36.9805 51.76C37.0205 51.77 37.0505 51.77 37.0905 51.77C37.1905 51.77 37.2905 51.74 37.3805 51.7C37.3905 51.7 37.4005 51.7 37.4205 51.69C37.4305 51.68 37.4405 51.67 37.4605 51.66C37.5205 51.63 37.5705 51.59 37.6205 51.54C37.6405 51.52 37.6605 51.51 37.6705 51.49C37.7305 51.42 37.7705 51.35 37.8005 51.26C37.9805 50.73 42.2305 38.25 33.6305 30.75ZM13.0305 35.91C9.7205 26.85 12.4305 20.41 14.3705 17.35C14.3005 21.49 15.3705 29.6 23.7105 35.73C29.9005 40.28 34.1205 47.14 35.7105 49.99C30.9805 49.05 16.5005 45.41 13.0305 35.91Z" fill="#1D1D1D"/>
<path d="M22.7105 24.02C22.8405 24.12 23.0005 24.17 23.1505 24.17C23.3805 24.17 23.6105 24.06 23.7605 23.86C24.0005 23.53 23.9305 23.06 23.6005 22.81C22.6705 22.13 22.0705 21.65 21.7705 21.35C21.4805 21.06 21.0005 21.05 20.7105 21.35C20.4205 21.64 20.4105 22.12 20.7105 22.41C20.9405 22.65 21.3905 23.06 22.7105 24.02Z" fill="#1D1D1D"/>
<path d="M49.9105 13.11C49.8905 13.1 49.8605 13.1 49.8405 13.08C49.7905 13.05 49.7305 13.03 49.6705 13.02C49.6305 13.01 49.5905 13 49.5505 13C49.4905 13 49.4305 13 49.3705 13.01C49.3405 13.02 49.3105 13.01 49.2805 13.02C49.2605 13.02 49.2505 13.04 49.2405 13.04C49.2205 13.05 49.2105 13.04 49.1905 13.05C49.1505 13.07 49.1205 13.1 49.0805 13.13C49.0405 13.16 49.0005 13.18 48.9705 13.21C48.9205 13.26 48.8905 13.32 48.8505 13.38C48.8405 13.41 48.8105 13.42 48.8005 13.45C46.5005 18.98 44.1905 21.29 42.5005 22.98C41.8605 23.62 41.3105 24.17 40.8505 24.79C36.7805 30.25 40.8205 36.97 41.0005 37.25C41.0605 37.35 41.1505 37.42 41.2405 37.48C41.2705 37.5 41.3105 37.51 41.3405 37.53C41.3805 37.55 41.4105 37.57 41.4605 37.58C41.5205 37.59 41.5805 37.6 41.6305 37.6C41.7205 37.6 41.8005 37.58 41.8805 37.55H41.8905C42.3605 37.37 53.5005 33.14 54.5505 25.52C55.7305 17.04 50.1505 13.27 49.9105 13.11ZM42.0605 25.69C42.4605 25.16 42.9705 24.64 43.5705 24.04C45.1405 22.47 47.2205 20.39 49.3505 15.91C49.7705 18.13 49.8005 22 46.4505 25.8C43.7805 28.82 42.2405 32.56 41.4905 34.78C40.6405 32.64 39.7205 28.84 42.0605 25.69ZM53.0805 25.33C52.3605 30.55 45.7805 34.16 42.8205 35.53C43.5005 33.48 44.9905 29.71 47.5705 26.79C51.0805 22.82 51.2905 18.75 50.9105 16.16C52.2405 17.88 53.6905 20.86 53.0805 25.33Z" fill="#1D1D1D"/>
</svg>
