<svg width="64" height="64" viewBox="0 0 64 64" fill="none" xmlns="http://www.w3.org/2000/svg">
<path d="M36.59 17.28C35.21 14.18 32.1 12 28.48 12C24.69 12 21.46 14.39 20.19 17.74V17.45C17.55 19.76 15.87 23.15 15.87 26.93V50.61C15.87 51.02 16.21 51.36 16.62 51.36C17.03 51.36 17.37 51.02 17.37 50.61V26.93C17.37 24.41 18.22 22.09 19.64 20.23C19.62 20.44 19.61 20.66 19.61 20.88V32.77C19.61 37.66 23.59 41.65 28.49 41.65C33.39 41.65 37.37 37.67 37.37 32.77V20.88C37.37 20.66 37.35 20.45 37.34 20.24C38.76 22.1 39.61 24.42 39.61 26.94V50.62C39.61 51.03 39.95 51.37 40.36 51.37C40.77 51.37 41.11 51.03 41.11 50.62V26.93C41.1 23.06 39.35 19.6 36.59 17.28ZM35.86 32.77C35.86 36.84 32.55 40.15 28.48 40.15C24.41 40.15 21.1 36.84 21.1 32.77V20.88C21.1 16.81 24.41 13.5 28.48 13.5C32.55 13.5 35.86 16.81 35.86 20.88V32.77Z" fill="#1D1D1D"/>
<path d="M54.46 25.4C54.87 25.4 55.21 25.06 55.21 24.65C55.21 24.24 54.87 23.9 54.46 23.9H46.89C46.48 23.9 46.14 24.24 46.14 24.65C46.14 25.06 46.48 25.4 46.89 25.4H54.46Z" fill="#1D1D1D"/>
<path d="M13.65 28.63C13.65 28.22 13.31 27.88 12.9 27.88H4.75C4.34 27.88 4 28.22 4 28.63C4 29.04 4.34 29.38 4.75 29.38H12.9C13.31 29.38 13.65 29.05 13.65 28.63Z" fill="#1D1D1D"/>
<path d="M14 33.76H8.07C7.66 33.76 7.32 34.1 7.32 34.51C7.32 34.92 7.66 35.26 8.07 35.26H14C14.41 35.26 14.75 34.92 14.75 34.51C14.75 34.09 14.41 33.76 14 33.76Z" fill="#1D1D1D"/>
<path d="M53.87 13.75C49.56 13.75 46.05 17.26 46.05 21.57C46.05 21.98 46.39 22.32 46.8 22.32C47.21 22.32 47.55 21.98 47.55 21.57C47.55 18.09 50.38 15.25 53.87 15.25C57.36 15.25 60.19 18.08 60.19 21.57C60.19 25.06 57.36 27.89 53.87 27.89H42.99C42.58 27.89 42.24 28.23 42.24 28.64C42.24 29.05 42.58 29.39 42.99 29.39H53.88C58.19 29.39 61.7 25.88 61.7 21.57C61.69 17.26 58.19 13.75 53.87 13.75Z" fill="#1D1D1D"/>
<path d="M49.81 33.76H44.36C43.95 33.76 43.61 34.1 43.61 34.51C43.61 34.92 43.95 35.26 44.36 35.26H49.81C51.33 35.26 52.56 36.49 52.56 38.01C52.56 39.53 51.33 40.76 49.81 40.76C48.29 40.76 47.06 39.53 47.06 38.01C47.06 37.6 46.72 37.26 46.31 37.26C45.9 37.26 45.56 37.6 45.56 38.01C45.56 40.36 47.47 42.26 49.81 42.26C52.15 42.26 54.06 40.35 54.06 38.01C54.06 35.67 52.15 33.76 49.81 33.76Z" fill="#1D1D1D"/>
</svg>
