<svg width="64" height="64" viewBox="0 0 64 64" fill="none" xmlns="http://www.w3.org/2000/svg">
<path d="M54.77 27.11C54.77 27.1 54.78 27.09 54.78 27.07C54.78 27.05 54.77 27.04 54.77 27.02C54.77 26.96 54.75 26.89 54.73 26.83C54.72 26.8 54.71 26.77 54.7 26.75C54.69 26.74 54.69 26.72 54.68 26.71L47.33 13.39C47.32 13.37 47.3 13.37 47.29 13.35C47.24 13.27 47.17 13.2 47.09 13.15C47.07 13.14 47.05 13.12 47.03 13.1C47.02 13.1 47.02 13.09 47.01 13.08C46.91 13.03 46.8 13.01 46.69 13C46.68 13.01 46.68 13 46.67 13H18.11C18.1 13 18.09 13.01 18.09 13.01C17.98 13.01 17.87 13.03 17.77 13.09C17.76 13.09 17.76 13.1 17.75 13.11C17.72 13.11 17.71 13.13 17.68 13.15C17.6 13.21 17.53 13.27 17.48 13.35C17.48 13.37 17.46 13.37 17.45 13.39L10.09 26.8C10.08 26.81 10.08 26.83 10.08 26.84C10.07 26.87 10.06 26.9 10.05 26.92C10.03 26.98 10.02 27.04 10.01 27.11C10.01 27.13 10 27.14 10 27.16C10 27.17 10.01 27.18 10.01 27.2C10.01 27.27 10.03 27.35 10.05 27.42C10.06 27.44 10.06 27.45 10.06 27.47C10.09 27.54 10.14 27.61 10.19 27.68L31.83 51.34C31.84 51.35 31.86 51.36 31.87 51.37C31.92 51.42 31.98 51.46 32.04 51.49C32.06 51.5 32.09 51.52 32.11 51.53C32.2 51.56 32.29 51.59 32.38 51.59C32.48 51.59 32.57 51.57 32.65 51.53C32.68 51.52 32.7 51.51 32.72 51.49C32.78 51.46 32.84 51.42 32.89 51.37C32.9 51.36 32.92 51.35 32.93 51.34L54.57 27.59C54.63 27.53 54.67 27.46 54.7 27.38C54.71 27.37 54.71 27.35 54.71 27.33C54.75 27.26 54.77 27.18 54.77 27.11ZM18.08 15.36L23.67 26.39L12.02 26.41L18.08 15.36ZM52.76 26.33L41.1 26.35L46.7 15.35L52.76 26.33ZM39.83 25.53L33.67 14.5H45.45L39.83 25.53ZM38.58 26.36L26.2 26.38L32.39 15.28L38.58 26.36ZM24.93 25.57L19.33 14.5H31.11L24.93 25.57ZM24.34 27.89L30.64 47.81L12.44 27.91L24.34 27.89ZM36.81 36.81C36.41 36.69 35.99 36.91 35.87 37.3L32.39 48.33L25.92 27.88L38.85 27.85L37.39 32.48C37.27 32.88 37.48 33.3 37.88 33.42C37.96 33.44 38.03 33.46 38.11 33.46C38.43 33.46 38.72 33.26 38.83 32.94L40.43 27.86L52.34 27.84L34.13 47.8L37.3 37.75C37.42 37.36 37.2 36.93 36.81 36.81Z" fill="#1D1D1D"/>
</svg>
