<svg width="16" height="16" viewBox="0 0 16 16" fill="none" xmlns="http://www.w3.org/2000/svg">
<path d="M13.7148 4.4308H11.2863V4.14509C11.2863 2.3308 9.81484 0.859375 8.00056 0.859375C6.18627 0.859375 4.71484 2.3308 4.71484 4.14509V4.4308H2.28627C1.9702 4.4308 1.71484 4.68616 1.71484 5.00223V14.5737C1.71484 14.8897 1.9702 15.1451 2.28627 15.1451H13.7148C14.0309 15.1451 14.2863 14.8897 14.2863 14.5737V5.00223C14.2863 4.68616 14.0309 4.4308 13.7148 4.4308ZM6.00056 4.14509C6.00056 3.03973 6.8952 2.14509 8.00056 2.14509C9.10592 2.14509 10.0006 3.03973 10.0006 4.14509V4.4308H6.00056V4.14509ZM13.0006 13.8594H3.00056V5.71652H4.71484V7.28795C4.71484 7.36652 4.77913 7.4308 4.8577 7.4308H5.8577C5.93627 7.4308 6.00056 7.36652 6.00056 7.28795V5.71652H10.0006V7.28795C10.0006 7.36652 10.0648 7.4308 10.1434 7.4308H11.1434C11.222 7.4308 11.2863 7.36652 11.2863 7.28795V5.71652H13.0006V13.8594Z" fill="#1D1D1D"/>
</svg>
