<svg width="64" height="64" viewBox="0 0 64 64" fill="none" xmlns="http://www.w3.org/2000/svg">
<path d="M15.4609 30.6669C15.4909 30.6669 15.5209 30.6669 15.5509 30.6669C15.9609 30.6169 16.2609 30.2469 16.2109 29.8369C15.4309 23.0069 17.5509 16.6969 21.8809 12.9369C26.7709 8.69694 30.6709 9.39694 34.8009 10.1369C37.8409 10.6869 40.9709 11.2469 44.5809 9.94694C43.8709 13.6169 40.8409 23.7269 29.4009 23.5969C28.9809 23.5869 28.6509 23.9269 28.6409 24.3369C28.6409 24.7469 28.9709 25.0869 29.3809 25.0969C43.8409 25.2669 46.0809 10.3569 46.2609 8.92694C46.2909 8.78694 46.2909 8.64694 46.2409 8.50694C46.1209 8.14694 45.7409 7.93694 45.3709 8.01694C45.2909 8.03694 45.2209 8.05694 45.1609 8.09694C41.4609 9.81694 38.3609 9.26694 35.0709 8.66694C30.7709 7.89694 26.3309 7.09694 20.8909 11.8069C16.1809 15.8869 13.8709 22.6869 14.7109 30.0069C14.7609 30.3869 15.0809 30.6669 15.4609 30.6669Z" fill="#1D1D1D"/>
<path d="M59.1309 31.4669C58.3709 25.2869 54.0209 19.5669 47.4809 16.1769C47.1109 15.9969 46.6609 16.1369 46.4709 16.5069C46.2809 16.8769 46.4209 17.3269 46.7909 17.5169C52.8909 20.6769 56.9509 25.9669 57.6409 31.6569C58.4309 38.0869 55.6709 40.9269 52.7409 43.9369C50.5909 46.1569 48.3709 48.4369 47.4409 52.1569C44.8009 49.5169 38.0909 41.3769 44.6009 31.9469C44.8409 31.6069 44.7509 31.1369 44.4109 30.9069C44.0709 30.6669 43.6009 30.7569 43.3709 31.0969C35.1809 42.9669 46.2809 53.1769 47.3609 54.1269C47.4509 54.2269 47.5809 54.3069 47.7209 54.3469C47.8009 54.3669 47.8709 54.3769 47.9509 54.3769C48.2409 54.3669 48.5109 54.1869 48.6209 53.9069C48.6509 53.8369 48.6709 53.7569 48.6709 53.6769C49.3009 49.6469 51.5009 47.3869 53.8309 44.9869C56.8609 41.8469 60.0009 38.6069 59.1309 31.4669Z" fill="#1D1D1D"/>
<path d="M48.5809 26.3769C48.3109 26.0569 47.8409 26.0269 47.5209 26.2869C47.2009 26.5569 47.1709 27.0269 47.4309 27.3469C50.4109 30.8569 50.7009 34.6669 48.3309 38.9969C48.3209 39.0269 48.2709 39.1169 48.2609 39.1469C48.1309 39.4569 48.2309 39.8069 48.4909 40.0169C48.6309 40.1269 48.8109 40.1869 48.9809 40.1769C49.1209 40.1669 49.2609 40.1269 49.3909 40.0369C51.6409 38.4269 53.1309 35.8469 53.4609 32.9469C53.8309 29.7669 52.8009 26.6169 50.5709 24.0969C50.3009 23.7869 49.8209 23.7569 49.5109 24.0269C49.2009 24.2969 49.1709 24.7769 49.4409 25.0869C51.3809 27.2869 52.2809 30.0269 51.9609 32.7769C51.8509 33.7369 51.5909 34.6569 51.2109 35.4969C51.8509 32.2369 50.9609 29.1869 48.5809 26.3769Z" fill="#1D1D1D"/>
<path d="M22.3009 23.1169C22.1609 23.5069 22.3709 23.9369 22.7609 24.0669C22.8409 24.0969 22.9209 24.1069 23.0109 24.1069C23.3209 24.1069 23.6109 23.9169 23.7209 23.6069C25.2309 19.2569 28.3709 17.0669 33.3009 16.9169C33.3309 16.9169 33.4409 16.8969 33.4709 16.8969C33.8009 16.8469 34.0609 16.5869 34.1009 16.2569C34.1409 15.9269 33.9709 15.6069 33.6609 15.4669C31.1309 14.3469 28.1509 14.3769 25.4809 15.5669C22.5509 16.8669 20.3709 19.3469 19.3209 22.5469C19.1909 22.9369 19.4109 23.3669 19.8009 23.4969C20.2009 23.6269 20.6209 23.4069 20.7509 23.0169C21.6609 20.2269 23.5609 18.0669 26.0909 16.9369C26.9709 16.5469 27.8909 16.2969 28.8209 16.1969C25.6909 17.3269 23.5109 19.6369 22.3009 23.1169Z" fill="#1D1D1D"/>
<path d="M29.0609 45.6869C29.4409 45.5269 29.6309 45.0969 29.4709 44.7069C29.3109 44.3169 28.8809 44.1369 28.4909 44.2969C24.2309 46.0369 20.5109 45.1369 17.1409 41.5369C17.1209 41.5169 17.0409 41.4469 17.0209 41.4269C16.7609 41.2169 16.4009 41.1969 16.1209 41.3769C15.8409 41.5569 15.7209 41.9069 15.8209 42.2269C16.6509 44.8669 18.6509 47.0769 21.3009 48.2969C22.7609 48.9669 24.3109 49.2969 25.8909 49.2969C27.4709 49.2969 29.0709 48.9669 30.6109 48.2969C30.9909 48.1369 31.1709 47.6869 31.0009 47.3069C30.8409 46.9269 30.3909 46.7469 30.0109 46.9169C27.3109 48.0769 24.4409 48.0869 21.9209 46.9269C21.0409 46.5269 20.2509 45.9969 19.5709 45.3669C22.4709 46.9769 25.6509 47.0769 29.0609 45.6869Z" fill="#1D1D1D"/>
<path d="M38.4809 46.3269C33.6109 51.1769 27.3409 53.4269 21.7109 52.3569C15.3509 51.1469 13.4809 47.6469 11.5009 43.9469C10.0409 41.2269 8.5409 38.4169 5.2909 36.3869C8.6109 34.6769 18.4109 30.7669 25.4009 39.8369C25.6509 40.1669 26.1309 40.2269 26.4509 39.9769C26.7809 39.7269 26.8409 39.2569 26.5909 38.9269C17.7809 27.5069 4.6709 34.9669 3.4409 35.7069C3.3109 35.7669 3.2009 35.8569 3.1209 35.9869C2.9109 36.3069 2.9809 36.7369 3.2809 36.9769C3.3409 37.0269 3.4009 37.0669 3.4709 37.0869C7.1209 38.9169 8.6009 41.7069 10.1809 44.6469C12.2409 48.4969 14.3609 52.4769 21.4309 53.8169C22.4509 54.0069 23.4809 54.1069 24.5209 54.1069C29.7509 54.1069 35.1809 51.7169 39.5409 47.3769C39.8309 47.0869 39.8309 46.6069 39.5409 46.3169C39.2509 46.0369 38.7709 46.0369 38.4809 46.3269Z" fill="#1D1D1D"/>
</svg>
